<?xml version="1.0" encoding="utf-8"?>
<!-- Generator: Adobe Illustrator 19.0.0, SVG Export Plug-In . SVG Version: 6.00 Build 0)  -->
<svg version="1.1" id="Capa_1" xmlns="http://www.w3.org/2000/svg" xmlns:xlink="http://www.w3.org/1999/xlink" x="0px" y="0px"
	 viewBox="0 0 226.7 244.7" style="enable-background:new 0 0 226.7 244.7;" xml:space="preserve">
<style type="text/css">
	.st0{enable-background:new    ;}
	.st1{fill:#6C89C0;}
	.st2{fill:#394349;}
	.st3{fill:url(#XMLID_714_);}
	.st4{fill:#9AB0D8;}
	.st5{fill:#AACAEA;}
	.st6{fill:#CADEF2;}
	.st7{fill:#568CC6;}
	.st8{fill:#4470B1;}
	.st9{fill:#71A5D8;}
	.st10{fill:#6F3D8B;}
	.st11{fill:url(#XMLID_715_);}
	.st12{fill:#905D9B;}
	.st13{opacity:0.34;fill:#FFFFFF;}
	.st14{fill:url(#XMLID_716_);}
	.st15{opacity:0.69;}
	.st16{fill:#99C4BF;}
	.st17{fill:#6D609F;}
	.st18{fill:#9A649F;}
	.st19{fill:#C75B86;}
	.st20{fill:url(#XMLID_717_);}
	.st21{fill:url(#XMLID_718_);}
	.st22{fill:#C5DFE7;}
	.st23{fill:#BA90BB;}
	.st24{fill:#5A79B6;}
	.st25{fill:#4C7EBB;}
	.st26{fill:#7B66A3;}
	.st27{fill:#5E4992;}
	.st28{fill:#CE7797;}
	.st29{fill:#C75B82;}
	.st30{fill:#D690AD;}
	.st31{fill:#FFFFFF;}
</style>
<g id="XMLID_2_">
	<g id="XMLID_234_">
		<g id="XMLID_709_">
			<g id="XMLID_710_" class="st0">
				<path id="XMLID_713_" class="st1" d="M12.9,124.4c0-0.1,0-0.1,0-0.2c0,0,0-0.1,0-0.1c0,0,0,0,0,0c0,0,0,0,0-0.1
					c0-0.1,0-0.1,0-0.2c0-0.1,0-0.1,0-0.2c0,0,0,0,0,0c0,0,0,0,0,0c0-0.1,0-0.1,0-0.2c0-0.1,0-0.1,0-0.2c0,0,0-0.1,0-0.1
					c0,0,0,0,0,0c0,0,0-0.1,0-0.1c0-0.1,0-0.1,0.1-0.2c0-0.1,0-0.1,0-0.2c0,0,0,0,0,0c0,0,0,0,0,0c0-0.1,0-0.1,0.1-0.2
					c0-0.1,0-0.1,0.1-0.2c0,0,0,0,0,0c0,0,0,0,0,0c0,0,0-0.1,0-0.1c0-0.1,0.1-0.1,0.1-0.2c0,0,0-0.1,0.1-0.1c0,0,0,0,0,0
					c0,0,0,0,0,0c0-0.1,0.1-0.1,0.1-0.2c0-0.1,0.1-0.1,0.1-0.2c0,0,0,0,0,0c0,0,0,0,0,0c0-0.1,0.1-0.1,0.1-0.2
					c0-0.1,0.1-0.1,0.1-0.2c0,0,0-0.1,0.1-0.1c0,0,0,0,0,0c0-0.1,0.1-0.1,0.1-0.2c0.1-0.1,0.1-0.2,0.2-0.3c0,0,0,0,0,0
					c0.1-0.1,0.2-0.2,0.3-0.4c0,0,0,0,0,0c0,0,0,0,0,0c0.1-0.1,0.1-0.2,0.2-0.2c0-0.1,0.1-0.1,0.2-0.2c0,0,0,0,0,0c0,0,0,0,0,0
					c0.1-0.1,0.1-0.1,0.2-0.2c0.1-0.1,0.1-0.1,0.2-0.2c0,0,0,0,0,0c0,0,0,0,0,0c0,0,0.1-0.1,0.1-0.1c0.1-0.1,0.1-0.1,0.2-0.2
					c0,0,0,0,0.1-0.1c0,0,0,0,0,0c0,0,0.1-0.1,0.1-0.1c0.1-0.1,0.1-0.1,0.2-0.2c0,0,0.1,0,0.1-0.1c0,0,0,0,0,0c0,0,0,0,0.1,0
					c0.1,0,0.1-0.1,0.2-0.1c0,0,0.1-0.1,0.1-0.1c0,0,0,0,0,0c0,0,0,0,0,0c0.1,0,0.1-0.1,0.2-0.1c0.1,0,0.1-0.1,0.2-0.1c0,0,0,0,0,0
					l97.5-56.3c0,0,0.1,0,0.1-0.1c0.1,0,0.1-0.1,0.2-0.1c0,0,0.1,0,0.1-0.1c0,0,0,0,0,0c0,0,0,0,0,0c0.1,0,0.1,0,0.2-0.1
					c0.1,0,0.1,0,0.2-0.1c0,0,0,0,0,0c0,0,0,0,0,0c0,0,0.1,0,0.1,0c0.1,0,0.1,0,0.2,0c0,0,0.1,0,0.1,0c0,0,0,0,0,0c0,0,0,0,0.1,0
					c0.1,0,0.1,0,0.2,0c0,0,0.1,0,0.1,0c0,0,0,0,0,0c0,0,0,0,0,0c0.1,0,0.1,0,0.2,0c0,0,0.1,0,0.1,0c0,0,0,0,0.1,0c0,0,0,0,0.1,0
					c0.1,0,0.2,0,0.2,0c0,0,0,0,0,0c0,0,0,0,0,0c0.1,0,0.2,0,0.2,0.1c0,0,0,0,0,0c0.1,0,0.2,0.1,0.3,0.1l1.6,0.9
					c-0.1-0.1-0.2-0.1-0.3-0.1c-0.1,0-0.2-0.1-0.2-0.1c0,0,0,0,0,0c-0.1,0-0.2,0-0.3,0c0,0,0,0-0.1,0c-0.1,0-0.2,0-0.3,0
					c0,0,0,0,0,0c-0.1,0-0.2,0-0.3,0.1c0,0,0,0,0,0c-0.1,0-0.2,0.1-0.4,0.1c0,0,0,0,0,0c-0.1,0-0.3,0.1-0.4,0.2c0,0,0,0,0,0
					c-0.1,0.1-0.3,0.1-0.4,0.2l-97.5,56.3c-0.1,0.1-0.3,0.2-0.4,0.3c0,0,0,0,0,0c-0.1,0.1-0.2,0.2-0.4,0.3c0,0,0,0,0,0
					c-0.1,0.1-0.2,0.2-0.3,0.3c0,0,0,0,0,0c-0.1,0.1-0.2,0.2-0.3,0.3c0,0,0,0,0,0c-0.1,0.1-0.2,0.3-0.3,0.4c0,0,0,0,0,0
					c-0.2,0.3-0.4,0.5-0.6,0.8c-0.1,0.1-0.1,0.2-0.2,0.3c0,0.1-0.1,0.1-0.1,0.2c0,0,0,0.1-0.1,0.1c-0.1,0.1-0.1,0.3-0.2,0.4
					c0,0,0,0,0,0c-0.1,0.2-0.2,0.3-0.2,0.5c0,0,0,0,0,0c-0.1,0.2-0.1,0.3-0.2,0.5c0,0,0,0,0,0c-0.1,0.2-0.1,0.3-0.2,0.5c0,0,0,0,0,0
					c0,0.2-0.1,0.3-0.1,0.5c0,0,0,0,0,0c0,0.2-0.1,0.3-0.1,0.5c0,0,0,0,0,0c0,0.2,0,0.3-0.1,0.5c0,0,0,0,0,0c0,0.2,0,0.3,0,0.5
					l0.2,74.5l-1.6-0.9l-0.2-74.5C12.9,124.6,12.9,124.5,12.9,124.4z"/>
				<g id="XMLID_711_">
					<path id="XMLID_712_" class="st2" d="M18.5,118.5c-2.2,1.3-4.1,4.4-4.1,7l0.2,74.5l105.6-61l-0.2-74.5c0-2.6-1.8-3.6-4.1-2.3
						L18.5,118.5z"/>
				</g>
			</g>
		</g>
		<g id="XMLID_707_">
			<linearGradient id="XMLID_714_" gradientUnits="userSpaceOnUse" x1="11.246" y1="185.6241" x2="125.5838" y2="71.2863">
				<stop  offset="0" style="stop-color:#BB5596"/>
				<stop  offset="0.9892" style="stop-color:#6C89C0"/>
			</linearGradient>
			<polygon id="XMLID_708_" class="st3" points="17.9,127.3 18,188.7 116.8,131.7 116.6,70.3 			"/>
		</g>
		<g id="XMLID_702_">
			<g id="XMLID_703_" class="st0">
				<path id="XMLID_706_" class="st4" d="M13,198.1c0,0.1,0,0.1,0,0.2c0,0.1,0,0.1,0,0.2c0,0.1,0,0.1,0.1,0.2c0,0,0,0.1,0.1,0.1
					c0,0.1,0.1,0.1,0.1,0.2c0,0,0.1,0.1,0.1,0.1c0,0.1,0.1,0.1,0.1,0.2c0,0,0.1,0.1,0.1,0.1c0.1,0.1,0.2,0.2,0.3,0.3
					c0,0,0.1,0.1,0.1,0.1c0.1,0.1,0.1,0.1,0.2,0.2c0.1,0,0.1,0.1,0.2,0.1c0.1,0.1,0.1,0.1,0.2,0.1c0.1,0,0.1,0.1,0.2,0.1l59.9,34.8
					c0.3,0.2,0.6,0.3,0.9,0.4c0.1,0,0.2,0.1,0.2,0.1c0.2,0.1,0.4,0.1,0.6,0.2c0.2,0.1,0.4,0.1,0.6,0.2c0.2,0.1,0.5,0.1,0.7,0.1
					c0.1,0,0.1,0,0.2,0c0.3,0,0.7,0.1,1,0.1c0.1,0,0.1,0,0.2,0c0.3,0,0.7,0,1-0.1c0.1,0,0.1,0,0.2,0c0.3,0,0.7-0.1,1-0.2
					c0.1,0,0.1,0,0.2,0c0.3-0.1,0.6-0.2,0.8-0.3c0,0,0.1,0,0.1-0.1c0.3-0.1,0.6-0.3,0.9-0.4l99.6-57.5c1.2-0.7,1.8-1.6,1.8-2.5l0,3
					c0,0.9-0.6,1.8-1.8,2.5l-99.6,57.5c-0.3,0.2-0.6,0.3-0.9,0.4c0,0,0,0,0,0c0,0-0.1,0-0.1,0.1c-0.2,0.1-0.4,0.1-0.5,0.2
					c-0.1,0-0.2,0-0.3,0.1c-0.1,0-0.1,0-0.2,0c-0.1,0-0.1,0-0.2,0c-0.2,0-0.4,0.1-0.6,0.1c-0.1,0-0.1,0-0.2,0c-0.1,0-0.1,0-0.2,0
					c-0.1,0-0.1,0-0.2,0c-0.2,0-0.4,0-0.6,0c-0.1,0-0.1,0-0.2,0c-0.1,0-0.1,0-0.2,0c-0.1,0-0.2,0-0.3,0c-0.2,0-0.5,0-0.7,0
					c0,0-0.1,0-0.1,0c-0.1,0-0.1,0-0.2,0c-0.2,0-0.3,0-0.5-0.1c-0.1,0-0.1,0-0.2-0.1c-0.2,0-0.4-0.1-0.6-0.2c-0.1,0-0.2,0-0.3-0.1
					c-0.1,0-0.2-0.1-0.2-0.1c-0.1,0-0.2-0.1-0.2-0.1c-0.3-0.1-0.6-0.2-0.9-0.4l-59.9-34.8c0,0,0,0-0.1,0c-0.1,0-0.1-0.1-0.2-0.1
					c-0.1,0-0.1-0.1-0.2-0.1c-0.1,0-0.1-0.1-0.2-0.1c-0.1-0.1-0.1-0.1-0.2-0.2c0,0,0,0,0,0c0,0,0,0-0.1-0.1
					c-0.1-0.1-0.2-0.2-0.3-0.3c0,0,0,0-0.1-0.1c0,0,0,0,0-0.1c-0.1-0.1-0.1-0.1-0.1-0.2c0,0,0-0.1-0.1-0.1c0,0,0,0,0,0
					c0-0.1-0.1-0.1-0.1-0.2c0,0,0-0.1-0.1-0.1c0,0,0,0,0,0c0-0.1,0-0.1-0.1-0.2c0,0,0-0.1,0-0.1c0,0,0,0,0,0c0-0.1,0-0.1,0-0.2
					c0,0,0-0.1,0-0.1c0,0,0,0,0-0.1l0-3C13,197.9,13,198,13,198.1z"/>
				<g id="XMLID_704_">
					<path id="XMLID_705_" class="st1" d="M14.8,195.4c-2.4,1.4-2.4,3.6,0,5l59.9,34.8c2.4,1.4,6.2,1.4,8.6,0l99.6-57.5
						c2.4-1.4,2.4-3.6,0-5L123,137.9c-2.4-1.4-6.2-1.4-8.6,0L14.8,195.4z"/>
				</g>
			</g>
		</g>
		<g id="XMLID_700_">
			<path id="XMLID_701_" class="st5" d="M19.4,196.8c-1.1,0.6-1.1,1.7,0,2.3l57.4,33.4c1.1,0.6,2.9,0.6,4,0l97.5-56.3
				c1.1-0.6,1.1-1.7,0-2.3l-57.4-33.4c-1.1-0.6-2.9-0.6-4,0L19.4,196.8z"/>
		</g>
		<g id="XMLID_698_">
			<path id="XMLID_699_" class="st6" d="M100,207.6l7.3,4.2c0.8,0.4,1.7,0.5,2.5,0l38.8-22.4c0.7-0.4,0.7-1.3,0-1.7l-7.3-4.2
				c-0.8-0.4-1.7-0.5-2.5,0L100,205.9C99.3,206.3,99.3,207.2,100,207.6z"/>
		</g>
		<g id="XMLID_235_">
			<g id="XMLID_691_" class="st0">
				<g id="XMLID_696_">
					<polygon id="XMLID_697_" class="st7" points="110.4,145.7 110.4,147.4 113.1,149 113.1,147.3 					"/>
				</g>
				<g id="XMLID_694_">
					<polygon id="XMLID_695_" class="st8" points="113.1,147.3 113.1,149 118.7,145.8 118.7,144.1 					"/>
				</g>
				<g id="XMLID_692_">
					<polygon id="XMLID_693_" class="st9" points="110.4,145.7 113.1,147.3 118.7,144.1 115.9,142.5 					"/>
				</g>
			</g>
			<g id="XMLID_684_" class="st0">
				<g id="XMLID_689_">
					<polygon id="XMLID_690_" class="st7" points="101.9,150.6 101.9,152.3 104.7,153.9 104.7,152.2 					"/>
				</g>
				<g id="XMLID_687_">
					<polygon id="XMLID_688_" class="st8" points="104.7,152.2 104.7,153.9 110.2,150.7 110.2,149 					"/>
				</g>
				<g id="XMLID_685_">
					<polygon id="XMLID_686_" class="st9" points="101.9,150.6 104.7,152.2 110.2,149 107.4,147.4 					"/>
				</g>
			</g>
			<g id="XMLID_677_" class="st0">
				<g id="XMLID_682_">
					<polygon id="XMLID_683_" class="st7" points="93.4,155.5 93.4,157.2 96.2,158.8 96.2,157.1 					"/>
				</g>
				<g id="XMLID_680_">
					<polygon id="XMLID_681_" class="st8" points="96.2,157.1 96.2,158.8 101.7,155.6 101.7,153.9 					"/>
				</g>
				<g id="XMLID_678_">
					<polygon id="XMLID_679_" class="st9" points="93.4,155.5 96.2,157.1 101.7,153.9 99,152.3 					"/>
				</g>
			</g>
			<g id="XMLID_670_" class="st0">
				<g id="XMLID_675_">
					<polygon id="XMLID_676_" class="st7" points="85,160.4 85,162.1 87.7,163.7 87.7,162 					"/>
				</g>
				<g id="XMLID_673_">
					<polygon id="XMLID_674_" class="st8" points="87.7,162 87.7,163.7 93.3,160.5 93.3,158.8 					"/>
				</g>
				<g id="XMLID_671_">
					<polygon id="XMLID_672_" class="st9" points="85,160.4 87.7,162 93.3,158.8 90.5,157.2 					"/>
				</g>
			</g>
			<g id="XMLID_663_" class="st0">
				<g id="XMLID_668_">
					<polygon id="XMLID_669_" class="st7" points="76.5,165.3 76.5,167 79.2,168.6 79.2,166.9 					"/>
				</g>
				<g id="XMLID_666_">
					<polygon id="XMLID_667_" class="st8" points="79.2,166.9 79.2,168.6 84.8,165.4 84.8,163.7 					"/>
				</g>
				<g id="XMLID_664_">
					<polygon id="XMLID_665_" class="st9" points="76.5,165.3 79.2,166.9 84.8,163.7 82,162.1 					"/>
				</g>
			</g>
			<g id="XMLID_656_" class="st0">
				<g id="XMLID_661_">
					<polygon id="XMLID_662_" class="st7" points="68,170.2 68,171.9 70.8,173.5 70.8,171.8 					"/>
				</g>
				<g id="XMLID_659_">
					<polygon id="XMLID_660_" class="st8" points="70.8,171.8 70.8,173.5 76.3,170.3 76.3,168.6 					"/>
				</g>
				<g id="XMLID_657_">
					<polygon id="XMLID_658_" class="st9" points="68,170.2 70.8,171.8 76.3,168.6 73.5,167 					"/>
				</g>
			</g>
			<g id="XMLID_649_" class="st0">
				<g id="XMLID_654_">
					<polygon id="XMLID_655_" class="st7" points="59.5,175 59.5,176.8 62.3,178.4 62.3,176.7 					"/>
				</g>
				<g id="XMLID_652_">
					<polygon id="XMLID_653_" class="st8" points="62.3,176.7 62.3,178.4 67.8,175.2 67.8,173.5 					"/>
				</g>
				<g id="XMLID_650_">
					<polygon id="XMLID_651_" class="st9" points="59.5,175 62.3,176.7 67.8,173.5 65.1,171.9 					"/>
				</g>
			</g>
			<g id="XMLID_642_" class="st0">
				<g id="XMLID_647_">
					<polygon id="XMLID_648_" class="st7" points="51,179.9 51.1,181.7 53.8,183.3 53.8,181.5 					"/>
				</g>
				<g id="XMLID_645_">
					<polygon id="XMLID_646_" class="st8" points="53.8,181.5 53.8,183.3 59.4,180.1 59.3,178.3 					"/>
				</g>
				<g id="XMLID_643_">
					<polygon id="XMLID_644_" class="st9" points="51,179.9 53.8,181.5 59.3,178.3 56.6,176.7 					"/>
				</g>
			</g>
			<g id="XMLID_635_" class="st0">
				<g id="XMLID_640_">
					<polygon id="XMLID_641_" class="st7" points="42.6,184.8 42.6,186.6 45.3,188.2 45.3,186.4 					"/>
				</g>
				<g id="XMLID_638_">
					<polygon id="XMLID_639_" class="st8" points="45.3,186.4 45.3,188.2 50.9,185 50.9,183.2 					"/>
				</g>
				<g id="XMLID_636_">
					<polygon id="XMLID_637_" class="st9" points="42.6,184.8 45.3,186.4 50.9,183.2 48.1,181.6 					"/>
				</g>
			</g>
			<g id="XMLID_628_" class="st0">
				<g id="XMLID_633_">
					<polygon id="XMLID_634_" class="st7" points="34.1,189.7 34.1,191.5 36.9,193.1 36.8,191.3 					"/>
				</g>
				<g id="XMLID_631_">
					<polygon id="XMLID_632_" class="st8" points="36.8,191.3 36.9,193.1 42.4,189.9 42.4,188.1 					"/>
				</g>
				<g id="XMLID_629_">
					<polygon id="XMLID_630_" class="st9" points="34.1,189.7 36.8,191.3 42.4,188.1 39.6,186.5 					"/>
				</g>
			</g>
			<g id="XMLID_621_" class="st0">
				<g id="XMLID_626_">
					<polygon id="XMLID_627_" class="st7" points="25.6,194.6 25.6,196.4 28.4,198 28.4,196.2 					"/>
				</g>
				<g id="XMLID_624_">
					<polygon id="XMLID_625_" class="st8" points="28.4,196.2 28.4,198 33.9,194.8 33.9,193 					"/>
				</g>
				<g id="XMLID_622_">
					<polygon id="XMLID_623_" class="st9" points="25.6,194.6 28.4,196.2 33.9,193 31.2,191.4 					"/>
				</g>
			</g>
			<g id="XMLID_614_" class="st0">
				<g id="XMLID_619_">
					<polygon id="XMLID_620_" class="st7" points="115.7,148.8 115.7,150.5 121.2,153.7 121.2,152 					"/>
				</g>
				<g id="XMLID_617_">
					<polygon id="XMLID_618_" class="st8" points="121.2,152 121.2,153.7 126.8,150.5 126.8,148.8 					"/>
				</g>
				<g id="XMLID_615_">
					<polygon id="XMLID_616_" class="st9" points="115.7,148.8 121.2,152 126.8,148.8 121.3,145.6 					"/>
				</g>
			</g>
			<g id="XMLID_607_" class="st0">
				<g id="XMLID_612_">
					<polygon id="XMLID_613_" class="st7" points="107.3,153.7 107.3,155.4 112.8,158.6 112.8,156.9 					"/>
				</g>
				<g id="XMLID_610_">
					<polygon id="XMLID_611_" class="st8" points="112.8,156.9 112.8,158.6 118.3,155.4 118.3,153.7 					"/>
				</g>
				<g id="XMLID_608_">
					<polygon id="XMLID_609_" class="st9" points="107.3,153.7 112.8,156.9 118.3,153.7 112.8,150.5 					"/>
				</g>
			</g>
			<g id="XMLID_600_" class="st0">
				<g id="XMLID_605_">
					<polygon id="XMLID_606_" class="st7" points="98.8,158.6 98.8,160.3 104.3,163.5 104.3,161.8 					"/>
				</g>
				<g id="XMLID_603_">
					<polygon id="XMLID_604_" class="st8" points="104.3,161.8 104.3,163.5 109.8,160.3 109.8,158.6 					"/>
				</g>
				<g id="XMLID_601_">
					<polygon id="XMLID_602_" class="st9" points="98.8,158.6 104.3,161.8 109.8,158.6 104.3,155.4 					"/>
				</g>
			</g>
			<g id="XMLID_593_" class="st0">
				<g id="XMLID_598_">
					<polygon id="XMLID_599_" class="st7" points="90.3,163.5 90.3,165.2 95.8,168.4 95.8,166.7 					"/>
				</g>
				<g id="XMLID_596_">
					<polygon id="XMLID_597_" class="st8" points="95.8,166.7 95.8,168.4 101.4,165.2 101.3,163.5 					"/>
				</g>
				<g id="XMLID_594_">
					<polygon id="XMLID_595_" class="st9" points="90.3,163.5 95.8,166.7 101.3,163.5 95.8,160.3 					"/>
				</g>
			</g>
			<g id="XMLID_586_" class="st0">
				<g id="XMLID_591_">
					<polygon id="XMLID_592_" class="st7" points="81.8,168.4 81.8,170.1 87.3,173.3 87.3,171.6 					"/>
				</g>
				<g id="XMLID_589_">
					<polygon id="XMLID_590_" class="st8" points="87.3,171.6 87.3,173.3 92.9,170.1 92.9,168.4 					"/>
				</g>
				<g id="XMLID_587_">
					<polygon id="XMLID_588_" class="st9" points="81.8,168.4 87.3,171.6 92.9,168.4 87.4,165.2 					"/>
				</g>
			</g>
			<g id="XMLID_579_" class="st0">
				<g id="XMLID_584_">
					<polygon id="XMLID_585_" class="st7" points="73.3,173.3 73.4,175 78.9,178.2 78.9,176.5 					"/>
				</g>
				<g id="XMLID_582_">
					<polygon id="XMLID_583_" class="st8" points="78.9,176.5 78.9,178.2 84.4,175 84.4,173.3 					"/>
				</g>
				<g id="XMLID_580_">
					<polygon id="XMLID_581_" class="st9" points="73.3,173.3 78.9,176.5 84.4,173.3 78.9,170.1 					"/>
				</g>
			</g>
			<g id="XMLID_572_" class="st0">
				<g id="XMLID_577_">
					<polygon id="XMLID_578_" class="st7" points="64.9,178.2 64.9,179.9 70.4,183.1 70.4,181.4 					"/>
				</g>
				<g id="XMLID_575_">
					<polygon id="XMLID_576_" class="st8" points="70.4,181.4 70.4,183.1 75.9,179.9 75.9,178.2 					"/>
				</g>
				<g id="XMLID_573_">
					<polygon id="XMLID_574_" class="st9" points="64.9,178.2 70.4,181.4 75.9,178.2 70.4,175 					"/>
				</g>
			</g>
			<g id="XMLID_565_" class="st0">
				<g id="XMLID_570_">
					<polygon id="XMLID_571_" class="st7" points="56.4,183.1 56.4,184.8 61.9,188 61.9,186.3 					"/>
				</g>
				<g id="XMLID_568_">
					<polygon id="XMLID_569_" class="st8" points="61.9,186.3 61.9,188 67.4,184.8 67.4,183.1 					"/>
				</g>
				<g id="XMLID_566_">
					<polygon id="XMLID_567_" class="st9" points="56.4,183.1 61.9,186.3 67.4,183.1 61.9,179.8 					"/>
				</g>
			</g>
			<g id="XMLID_558_" class="st0">
				<g id="XMLID_563_">
					<polygon id="XMLID_564_" class="st7" points="47.9,187.9 47.9,189.7 53.4,192.9 53.4,191.1 					"/>
				</g>
				<g id="XMLID_561_">
					<polygon id="XMLID_562_" class="st8" points="53.4,191.1 53.4,192.9 59,189.7 59,187.9 					"/>
				</g>
				<g id="XMLID_559_">
					<polygon id="XMLID_560_" class="st9" points="47.9,187.9 53.4,191.1 59,187.9 53.5,184.7 					"/>
				</g>
			</g>
			<g id="XMLID_551_" class="st0">
				<g id="XMLID_556_">
					<polygon id="XMLID_557_" class="st7" points="39.4,192.8 39.4,194.6 45,197.8 44.9,196 					"/>
				</g>
				<g id="XMLID_554_">
					<polygon id="XMLID_555_" class="st8" points="44.9,196 45,197.8 50.5,194.6 50.5,192.8 					"/>
				</g>
				<g id="XMLID_552_">
					<polygon id="XMLID_553_" class="st9" points="39.4,192.8 44.9,196 50.5,192.8 45,189.6 					"/>
				</g>
			</g>
			<g id="XMLID_544_" class="st0">
				<g id="XMLID_549_">
					<polygon id="XMLID_550_" class="st7" points="31,197.7 31,199.5 36.5,202.7 36.5,200.9 					"/>
				</g>
				<g id="XMLID_547_">
					<polygon id="XMLID_548_" class="st8" points="36.5,200.9 36.5,202.7 42,199.5 42,197.7 					"/>
				</g>
				<g id="XMLID_545_">
					<polygon id="XMLID_546_" class="st9" points="31,197.7 36.5,200.9 42,197.7 36.5,194.5 					"/>
				</g>
			</g>
			<g id="XMLID_537_" class="st0">
				<g id="XMLID_542_">
					<polygon id="XMLID_543_" class="st7" points="123.8,153.5 123.8,155.2 129.3,158.4 129.3,156.7 					"/>
				</g>
				<g id="XMLID_540_">
					<polygon id="XMLID_541_" class="st8" points="129.3,156.7 129.3,158.4 134.9,155.2 134.9,153.5 					"/>
				</g>
				<g id="XMLID_538_">
					<polygon id="XMLID_539_" class="st9" points="123.8,153.5 129.3,156.7 134.9,153.5 129.4,150.3 					"/>
				</g>
			</g>
			<g id="XMLID_530_" class="st0">
				<g id="XMLID_535_">
					<polygon id="XMLID_536_" class="st7" points="115.3,158.4 115.4,160.1 120.9,163.3 120.9,161.6 					"/>
				</g>
				<g id="XMLID_533_">
					<polygon id="XMLID_534_" class="st8" points="120.9,161.6 120.9,163.3 126.4,160.1 126.4,158.4 					"/>
				</g>
				<g id="XMLID_531_">
					<polygon id="XMLID_532_" class="st9" points="115.3,158.4 120.9,161.6 126.4,158.4 120.9,155.2 					"/>
				</g>
			</g>
			<g id="XMLID_523_" class="st0">
				<g id="XMLID_528_">
					<polygon id="XMLID_529_" class="st7" points="106.9,163.3 106.9,165 112.4,168.2 112.4,166.5 					"/>
				</g>
				<g id="XMLID_526_">
					<polygon id="XMLID_527_" class="st8" points="112.4,166.5 112.4,168.2 117.9,165 117.9,163.3 					"/>
				</g>
				<g id="XMLID_524_">
					<polygon id="XMLID_525_" class="st9" points="106.9,163.3 112.4,166.5 117.9,163.3 112.4,160.1 					"/>
				</g>
			</g>
			<g id="XMLID_516_" class="st0">
				<g id="XMLID_521_">
					<polygon id="XMLID_522_" class="st7" points="98.4,168.2 98.4,169.9 103.9,173.1 103.9,171.4 					"/>
				</g>
				<g id="XMLID_519_">
					<polygon id="XMLID_520_" class="st8" points="103.9,171.4 103.9,173.1 109.5,169.9 109.4,168.2 					"/>
				</g>
				<g id="XMLID_517_">
					<polygon id="XMLID_518_" class="st9" points="98.4,168.2 103.9,171.4 109.4,168.2 103.9,165 					"/>
				</g>
			</g>
			<g id="XMLID_509_" class="st0">
				<g id="XMLID_514_">
					<polygon id="XMLID_515_" class="st7" points="89.9,173.1 89.9,174.8 95.4,178 95.4,176.3 					"/>
				</g>
				<g id="XMLID_512_">
					<polygon id="XMLID_513_" class="st8" points="95.4,176.3 95.4,178 101,174.8 101,173.1 					"/>
				</g>
				<g id="XMLID_510_">
					<polygon id="XMLID_511_" class="st9" points="89.9,173.1 95.4,176.3 101,173.1 95.5,169.9 					"/>
				</g>
			</g>
			<g id="XMLID_502_" class="st0">
				<g id="XMLID_507_">
					<polygon id="XMLID_508_" class="st7" points="81.4,178 81.4,179.7 87,182.9 87,181.2 					"/>
				</g>
				<g id="XMLID_505_">
					<polygon id="XMLID_506_" class="st8" points="87,181.2 87,182.9 92.5,179.7 92.5,178 					"/>
				</g>
				<g id="XMLID_503_">
					<polygon id="XMLID_504_" class="st9" points="81.4,178 87,181.2 92.5,178 87,174.8 					"/>
				</g>
			</g>
			<g id="XMLID_495_" class="st0">
				<g id="XMLID_500_">
					<polygon id="XMLID_501_" class="st7" points="73,182.9 73,184.6 78.5,187.8 78.5,186.1 					"/>
				</g>
				<g id="XMLID_498_">
					<polygon id="XMLID_499_" class="st8" points="78.5,186.1 78.5,187.8 84,184.6 84,182.9 					"/>
				</g>
				<g id="XMLID_496_">
					<polygon id="XMLID_497_" class="st9" points="73,182.9 78.5,186.1 84,182.9 78.5,179.7 					"/>
				</g>
			</g>
			<g id="XMLID_488_" class="st0">
				<g id="XMLID_493_">
					<polygon id="XMLID_494_" class="st7" points="64.5,187.8 64.5,189.5 70,192.7 70,191 					"/>
				</g>
				<g id="XMLID_491_">
					<polygon id="XMLID_492_" class="st8" points="70,191 70,192.7 75.5,189.5 75.5,187.8 					"/>
				</g>
				<g id="XMLID_489_">
					<polygon id="XMLID_490_" class="st9" points="64.5,187.8 70,191 75.5,187.8 70,184.6 					"/>
				</g>
			</g>
			<g id="XMLID_481_" class="st0">
				<g id="XMLID_486_">
					<polygon id="XMLID_487_" class="st7" points="56,192.7 56,194.4 61.5,197.6 61.5,195.9 					"/>
				</g>
				<g id="XMLID_484_">
					<polygon id="XMLID_485_" class="st8" points="61.5,195.9 61.5,197.6 67.1,194.4 67.1,192.7 					"/>
				</g>
				<g id="XMLID_482_">
					<polygon id="XMLID_483_" class="st9" points="56,192.7 61.5,195.9 67.1,192.7 61.6,189.4 					"/>
				</g>
			</g>
			<g id="XMLID_474_" class="st0">
				<g id="XMLID_479_">
					<polygon id="XMLID_480_" class="st7" points="47.5,197.5 47.5,199.3 53,202.5 53,200.7 					"/>
				</g>
				<g id="XMLID_477_">
					<polygon id="XMLID_478_" class="st8" points="53,200.7 53,202.5 58.6,199.3 58.6,197.5 					"/>
				</g>
				<g id="XMLID_475_">
					<polygon id="XMLID_476_" class="st9" points="47.5,197.5 53,200.7 58.6,197.5 53.1,194.3 					"/>
				</g>
			</g>
			<g id="XMLID_467_" class="st0">
				<g id="XMLID_472_">
					<polygon id="XMLID_473_" class="st7" points="39.1,202.4 39.1,204.2 44.6,207.4 44.6,205.6 					"/>
				</g>
				<g id="XMLID_470_">
					<polygon id="XMLID_471_" class="st8" points="44.6,205.6 44.6,207.4 50.1,204.2 50.1,202.4 					"/>
				</g>
				<g id="XMLID_468_">
					<polygon id="XMLID_469_" class="st9" points="39.1,202.4 44.6,205.6 50.1,202.4 44.6,199.2 					"/>
				</g>
			</g>
			<g id="XMLID_460_" class="st0">
				<g id="XMLID_465_">
					<polygon id="XMLID_466_" class="st7" points="131.9,158.2 131.9,159.9 137.4,163.1 137.4,161.4 					"/>
				</g>
				<g id="XMLID_463_">
					<polygon id="XMLID_464_" class="st8" points="137.4,161.4 137.4,163.1 143,159.9 143,158.2 					"/>
				</g>
				<g id="XMLID_461_">
					<polygon id="XMLID_462_" class="st9" points="131.9,158.2 137.4,161.4 143,158.2 137.5,155 					"/>
				</g>
			</g>
			<g id="XMLID_453_" class="st0">
				<g id="XMLID_458_">
					<polygon id="XMLID_459_" class="st7" points="123.4,163.1 123.5,164.8 129,168 129,166.3 					"/>
				</g>
				<g id="XMLID_456_">
					<polygon id="XMLID_457_" class="st8" points="129,166.3 129,168 134.5,164.8 134.5,163.1 					"/>
				</g>
				<g id="XMLID_454_">
					<polygon id="XMLID_455_" class="st9" points="123.4,163.1 129,166.3 134.5,163.1 129,159.9 					"/>
				</g>
			</g>
			<g id="XMLID_446_" class="st0">
				<g id="XMLID_451_">
					<polygon id="XMLID_452_" class="st7" points="115,168 115,169.7 120.5,172.9 120.5,171.2 					"/>
				</g>
				<g id="XMLID_449_">
					<polygon id="XMLID_450_" class="st8" points="120.5,171.2 120.5,172.9 126,169.7 126,168 					"/>
				</g>
				<g id="XMLID_447_">
					<polygon id="XMLID_448_" class="st9" points="115,168 120.5,171.2 126,168 120.5,164.8 					"/>
				</g>
			</g>
			<g id="XMLID_439_" class="st0">
				<g id="XMLID_444_">
					<polygon id="XMLID_445_" class="st7" points="106.5,172.9 106.5,174.6 112,177.8 112,176.1 					"/>
				</g>
				<g id="XMLID_442_">
					<polygon id="XMLID_443_" class="st8" points="112,176.1 112,177.8 117.5,174.6 117.5,172.9 					"/>
				</g>
				<g id="XMLID_440_">
					<polygon id="XMLID_441_" class="st9" points="106.5,172.9 112,176.1 117.5,172.9 112,169.7 					"/>
				</g>
			</g>
			<g id="XMLID_432_" class="st0">
				<g id="XMLID_437_">
					<polygon id="XMLID_438_" class="st7" points="98,177.8 98,179.5 103.5,182.7 103.5,181 					"/>
				</g>
				<g id="XMLID_435_">
					<polygon id="XMLID_436_" class="st8" points="103.5,181 103.5,182.7 109.1,179.5 109.1,177.8 					"/>
				</g>
				<g id="XMLID_433_">
					<polygon id="XMLID_434_" class="st9" points="98,177.8 103.5,181 109.1,177.8 103.6,174.6 					"/>
				</g>
			</g>
			<g id="XMLID_425_" class="st0">
				<g id="XMLID_430_">
					<polygon id="XMLID_431_" class="st7" points="89.5,182.7 89.5,184.4 95.1,187.6 95,185.9 					"/>
				</g>
				<g id="XMLID_428_">
					<polygon id="XMLID_429_" class="st8" points="95,185.9 95.1,187.6 100.6,184.4 100.6,182.7 					"/>
				</g>
				<g id="XMLID_426_">
					<polygon id="XMLID_427_" class="st9" points="89.5,182.7 95,185.9 100.6,182.7 95.1,179.5 					"/>
				</g>
			</g>
			<g id="XMLID_418_" class="st0">
				<g id="XMLID_423_">
					<polygon id="XMLID_424_" class="st7" points="81.1,187.6 81.1,189.3 86.6,192.5 86.6,190.8 					"/>
				</g>
				<g id="XMLID_421_">
					<polygon id="XMLID_422_" class="st8" points="86.6,190.8 86.6,192.5 92.1,189.3 92.1,187.6 					"/>
				</g>
				<g id="XMLID_419_">
					<polygon id="XMLID_420_" class="st9" points="81.1,187.6 86.6,190.8 92.1,187.6 86.6,184.4 					"/>
				</g>
			</g>
			<g id="XMLID_411_" class="st0">
				<g id="XMLID_416_">
					<polygon id="XMLID_417_" class="st7" points="72.6,192.5 72.6,194.2 78.1,197.4 78.1,195.7 					"/>
				</g>
				<g id="XMLID_414_">
					<polygon id="XMLID_415_" class="st8" points="78.1,195.7 78.1,197.4 83.6,194.2 83.6,192.5 					"/>
				</g>
				<g id="XMLID_412_">
					<polygon id="XMLID_413_" class="st9" points="72.6,192.5 78.1,195.7 83.6,192.5 78.1,189.3 					"/>
				</g>
			</g>
			<g id="XMLID_404_" class="st0">
				<g id="XMLID_409_">
					<polygon id="XMLID_410_" class="st7" points="64.1,197.4 64.1,199.1 69.6,202.3 69.6,200.6 					"/>
				</g>
				<g id="XMLID_407_">
					<polygon id="XMLID_408_" class="st8" points="69.6,200.6 69.6,202.3 75.2,199.1 75.2,197.4 					"/>
				</g>
				<g id="XMLID_405_">
					<polygon id="XMLID_406_" class="st9" points="64.1,197.4 69.6,200.6 75.2,197.4 69.7,194.2 					"/>
				</g>
			</g>
			<g id="XMLID_397_" class="st0">
				<g id="XMLID_402_">
					<polygon id="XMLID_403_" class="st7" points="55.6,202.3 55.6,204 61.1,207.2 61.1,205.5 					"/>
				</g>
				<g id="XMLID_400_">
					<polygon id="XMLID_401_" class="st8" points="61.1,205.5 61.1,207.2 66.7,204 66.7,202.3 					"/>
				</g>
				<g id="XMLID_398_">
					<polygon id="XMLID_399_" class="st9" points="55.6,202.3 61.1,205.5 66.7,202.3 61.2,199 					"/>
				</g>
			</g>
			<g id="XMLID_390_" class="st0">
				<g id="XMLID_395_">
					<polygon id="XMLID_396_" class="st7" points="47.2,207.1 47.2,208.9 52.7,212.1 52.7,210.3 					"/>
				</g>
				<g id="XMLID_393_">
					<polygon id="XMLID_394_" class="st8" points="52.7,210.3 52.7,212.1 58.2,208.9 58.2,207.1 					"/>
				</g>
				<g id="XMLID_391_">
					<polygon id="XMLID_392_" class="st9" points="47.2,207.1 52.7,210.3 58.2,207.1 52.7,203.9 					"/>
				</g>
			</g>
			<g id="XMLID_383_" class="st0">
				<g id="XMLID_388_">
					<polygon id="XMLID_389_" class="st7" points="140,162.9 140,164.6 145.5,167.8 145.5,166.1 					"/>
				</g>
				<g id="XMLID_386_">
					<polygon id="XMLID_387_" class="st8" points="145.5,166.1 145.5,167.8 151.1,164.7 151.1,162.9 					"/>
				</g>
				<g id="XMLID_384_">
					<polygon id="XMLID_385_" class="st9" points="140,162.9 145.5,166.1 151.1,162.9 145.6,159.7 					"/>
				</g>
			</g>
			<g id="XMLID_376_" class="st0">
				<g id="XMLID_381_">
					<polygon id="XMLID_382_" class="st7" points="131.5,167.8 131.5,169.5 137.1,172.7 137.1,171 					"/>
				</g>
				<g id="XMLID_379_">
					<polygon id="XMLID_380_" class="st8" points="137.1,171 137.1,172.7 142.6,169.5 142.6,167.8 					"/>
				</g>
				<g id="XMLID_377_">
					<polygon id="XMLID_378_" class="st9" points="131.5,167.8 137.1,171 142.6,167.8 137.1,164.6 					"/>
				</g>
			</g>
			<g id="XMLID_369_" class="st0">
				<g id="XMLID_374_">
					<polygon id="XMLID_375_" class="st7" points="123.1,172.7 123.1,174.4 128.6,177.6 128.6,175.9 					"/>
				</g>
				<g id="XMLID_372_">
					<polygon id="XMLID_373_" class="st8" points="128.6,175.9 128.6,177.6 134.1,174.4 134.1,172.7 					"/>
				</g>
				<g id="XMLID_370_">
					<polygon id="XMLID_371_" class="st9" points="123.1,172.7 128.6,175.9 134.1,172.7 128.6,169.5 					"/>
				</g>
			</g>
			<g id="XMLID_362_" class="st0">
				<g id="XMLID_367_">
					<polygon id="XMLID_368_" class="st7" points="114.6,177.6 114.6,179.3 120.1,182.5 120.1,180.8 					"/>
				</g>
				<g id="XMLID_365_">
					<polygon id="XMLID_366_" class="st8" points="120.1,180.8 120.1,182.5 125.6,179.3 125.6,177.6 					"/>
				</g>
				<g id="XMLID_363_">
					<polygon id="XMLID_364_" class="st9" points="114.6,177.6 120.1,180.8 125.6,177.6 120.1,174.4 					"/>
				</g>
			</g>
			<g id="XMLID_355_" class="st0">
				<g id="XMLID_360_">
					<polygon id="XMLID_361_" class="st7" points="106.1,182.5 106.1,184.2 111.6,187.4 111.6,185.7 					"/>
				</g>
				<g id="XMLID_358_">
					<polygon id="XMLID_359_" class="st8" points="111.6,185.7 111.6,187.4 117.2,184.2 117.2,182.5 					"/>
				</g>
				<g id="XMLID_356_">
					<polygon id="XMLID_357_" class="st9" points="106.1,182.5 111.6,185.7 117.2,182.5 111.7,179.3 					"/>
				</g>
			</g>
			<g id="XMLID_348_" class="st0">
				<g id="XMLID_353_">
					<polygon id="XMLID_354_" class="st7" points="97.6,187.4 97.6,189.1 103.2,192.3 103.1,190.6 					"/>
				</g>
				<g id="XMLID_351_">
					<polygon id="XMLID_352_" class="st8" points="103.1,190.6 103.2,192.3 108.7,189.1 108.7,187.4 					"/>
				</g>
				<g id="XMLID_349_">
					<polygon id="XMLID_350_" class="st9" points="97.6,187.4 103.1,190.6 108.7,187.4 103.2,184.2 					"/>
				</g>
			</g>
			<g id="XMLID_341_" class="st0">
				<g id="XMLID_346_">
					<polygon id="XMLID_347_" class="st7" points="89.2,192.3 89.2,194 94.7,197.2 94.7,195.5 					"/>
				</g>
				<g id="XMLID_344_">
					<polygon id="XMLID_345_" class="st8" points="94.7,195.5 94.7,197.2 100.2,194 100.2,192.3 					"/>
				</g>
				<g id="XMLID_342_">
					<polygon id="XMLID_343_" class="st9" points="89.2,192.3 94.7,195.5 100.2,192.3 94.7,189.1 					"/>
				</g>
			</g>
			<g id="XMLID_334_" class="st0">
				<g id="XMLID_339_">
					<polygon id="XMLID_340_" class="st7" points="80.7,197.2 80.7,198.9 86.2,202.1 86.2,200.4 					"/>
				</g>
				<g id="XMLID_337_">
					<polygon id="XMLID_338_" class="st8" points="86.2,200.4 86.2,202.1 91.7,198.9 91.7,197.2 					"/>
				</g>
				<g id="XMLID_335_">
					<polygon id="XMLID_336_" class="st9" points="80.7,197.2 86.2,200.4 91.7,197.2 86.2,194 					"/>
				</g>
			</g>
			<g id="XMLID_327_" class="st0">
				<g id="XMLID_332_">
					<polygon id="XMLID_333_" class="st7" points="72.2,202.1 72.2,203.8 77.7,207 77.7,205.3 					"/>
				</g>
				<g id="XMLID_330_">
					<polygon id="XMLID_331_" class="st8" points="77.7,205.3 77.7,207 83.3,203.8 83.3,202.1 					"/>
				</g>
				<g id="XMLID_328_">
					<polygon id="XMLID_329_" class="st9" points="72.2,202.1 77.7,205.3 83.3,202.1 77.8,198.9 					"/>
				</g>
			</g>
			<g id="XMLID_320_" class="st0">
				<g id="XMLID_325_">
					<polygon id="XMLID_326_" class="st7" points="63.7,207 63.7,208.7 69.2,211.9 69.2,210.2 					"/>
				</g>
				<g id="XMLID_323_">
					<polygon id="XMLID_324_" class="st8" points="69.2,210.2 69.2,211.9 74.8,208.7 74.8,207 					"/>
				</g>
				<g id="XMLID_321_">
					<polygon id="XMLID_322_" class="st9" points="63.7,207 69.2,210.2 74.8,207 69.3,203.8 					"/>
				</g>
			</g>
			<g id="XMLID_313_" class="st0">
				<g id="XMLID_318_">
					<polygon id="XMLID_319_" class="st7" points="55.3,211.8 55.3,213.6 60.8,216.8 60.8,215 					"/>
				</g>
				<g id="XMLID_316_">
					<polygon id="XMLID_317_" class="st8" points="60.8,215 60.8,216.8 66.3,213.6 66.3,211.9 					"/>
				</g>
				<g id="XMLID_314_">
					<polygon id="XMLID_315_" class="st9" points="55.3,211.8 60.8,215 66.3,211.9 60.8,208.6 					"/>
				</g>
			</g>
			<g id="XMLID_306_" class="st0">
				<g id="XMLID_311_">
					<polygon id="XMLID_312_" class="st7" points="148.1,167.6 148.1,169.4 153.6,172.6 153.6,170.8 					"/>
				</g>
				<g id="XMLID_309_">
					<polygon id="XMLID_310_" class="st8" points="153.6,170.8 153.6,172.6 159.2,169.4 159.2,167.6 					"/>
				</g>
				<g id="XMLID_307_">
					<polygon id="XMLID_308_" class="st9" points="148.1,167.6 153.6,170.8 159.2,167.6 153.7,164.4 					"/>
				</g>
			</g>
			<g id="XMLID_299_" class="st0">
				<g id="XMLID_304_">
					<polygon id="XMLID_305_" class="st7" points="139.6,172.5 139.6,174.2 145.2,177.4 145.1,175.7 					"/>
				</g>
				<g id="XMLID_302_">
					<polygon id="XMLID_303_" class="st8" points="145.1,175.7 145.2,177.4 150.7,174.2 150.7,172.5 					"/>
				</g>
				<g id="XMLID_300_">
					<polygon id="XMLID_301_" class="st9" points="139.6,172.5 145.1,175.7 150.7,172.5 145.2,169.3 					"/>
				</g>
			</g>
			<g id="XMLID_292_" class="st0">
				<g id="XMLID_297_">
					<polygon id="XMLID_298_" class="st7" points="131.2,177.4 131.2,179.1 136.7,182.3 136.7,180.6 					"/>
				</g>
				<g id="XMLID_295_">
					<polygon id="XMLID_296_" class="st8" points="136.7,180.6 136.7,182.3 142.2,179.1 142.2,177.4 					"/>
				</g>
				<g id="XMLID_293_">
					<polygon id="XMLID_294_" class="st9" points="131.2,177.4 136.7,180.6 142.2,177.4 136.7,174.2 					"/>
				</g>
			</g>
			<g id="XMLID_285_" class="st0">
				<g id="XMLID_290_">
					<polygon id="XMLID_291_" class="st7" points="122.7,182.3 122.7,184 128.2,187.2 128.2,185.5 					"/>
				</g>
				<g id="XMLID_288_">
					<polygon id="XMLID_289_" class="st8" points="128.2,185.5 128.2,187.2 133.7,184 133.7,182.3 					"/>
				</g>
				<g id="XMLID_286_">
					<polygon id="XMLID_287_" class="st9" points="122.7,182.3 128.2,185.5 133.7,182.3 128.2,179.1 					"/>
				</g>
			</g>
			<g id="XMLID_278_" class="st0">
				<g id="XMLID_283_">
					<polygon id="XMLID_284_" class="st7" points="114.2,187.2 114.2,188.9 119.7,192.1 119.7,190.4 					"/>
				</g>
				<g id="XMLID_281_">
					<polygon id="XMLID_282_" class="st8" points="119.7,190.4 119.7,192.1 125.3,188.9 125.3,187.2 					"/>
				</g>
				<g id="XMLID_279_">
					<polygon id="XMLID_280_" class="st9" points="114.2,187.2 119.7,190.4 125.3,187.2 119.8,184 					"/>
				</g>
			</g>
			<g id="XMLID_271_" class="st0">
				<g id="XMLID_276_">
					<polygon id="XMLID_277_" class="st7" points="105.7,192.1 105.7,193.8 111.2,197 111.2,195.3 					"/>
				</g>
				<g id="XMLID_274_">
					<polygon id="XMLID_275_" class="st8" points="111.2,195.3 111.2,197 116.8,193.8 116.8,192.1 					"/>
				</g>
				<g id="XMLID_272_">
					<polygon id="XMLID_273_" class="st9" points="105.7,192.1 111.2,195.3 116.8,192.1 111.3,188.9 					"/>
				</g>
			</g>
			<g id="XMLID_264_" class="st0">
				<g id="XMLID_269_">
					<polygon id="XMLID_270_" class="st7" points="97.3,197 97.3,198.7 102.8,201.9 102.8,200.2 					"/>
				</g>
				<g id="XMLID_267_">
					<polygon id="XMLID_268_" class="st8" points="102.8,200.2 102.8,201.9 108.3,198.7 108.3,197 					"/>
				</g>
				<g id="XMLID_265_">
					<polygon id="XMLID_266_" class="st9" points="97.3,197 102.8,200.2 108.3,197 102.8,193.8 					"/>
				</g>
			</g>
			<g id="XMLID_257_" class="st0">
				<g id="XMLID_262_">
					<polygon id="XMLID_263_" class="st7" points="88.8,201.9 88.8,203.6 94.3,206.8 94.3,205.1 					"/>
				</g>
				<g id="XMLID_260_">
					<polygon id="XMLID_261_" class="st8" points="94.3,205.1 94.3,206.8 99.8,203.6 99.8,201.9 					"/>
				</g>
				<g id="XMLID_258_">
					<polygon id="XMLID_259_" class="st9" points="88.8,201.9 94.3,205.1 99.8,201.9 94.3,198.7 					"/>
				</g>
			</g>
			<g id="XMLID_250_" class="st0">
				<g id="XMLID_255_">
					<polygon id="XMLID_256_" class="st7" points="80.3,206.8 80.3,208.5 85.8,211.7 85.8,210 					"/>
				</g>
				<g id="XMLID_253_">
					<polygon id="XMLID_254_" class="st8" points="85.8,210 85.8,211.7 91.4,208.5 91.4,206.8 					"/>
				</g>
				<g id="XMLID_251_">
					<polygon id="XMLID_252_" class="st9" points="80.3,206.8 85.8,210 91.4,206.8 85.8,203.6 					"/>
				</g>
			</g>
			<g id="XMLID_243_" class="st0">
				<g id="XMLID_248_">
					<polygon id="XMLID_249_" class="st7" points="71.8,211.7 71.8,213.4 77.3,216.6 77.3,214.9 					"/>
				</g>
				<g id="XMLID_246_">
					<polygon id="XMLID_247_" class="st8" points="77.3,214.9 77.3,216.6 82.9,213.4 82.9,211.7 					"/>
				</g>
				<g id="XMLID_244_">
					<polygon id="XMLID_245_" class="st9" points="71.8,211.7 77.3,214.9 82.9,211.7 77.4,208.5 					"/>
				</g>
			</g>
			<g id="XMLID_236_" class="st0">
				<g id="XMLID_241_">
					<polygon id="XMLID_242_" class="st7" points="63.4,216.6 63.4,218.3 68.9,221.5 68.9,219.8 					"/>
				</g>
				<g id="XMLID_239_">
					<polygon id="XMLID_240_" class="st8" points="68.9,219.8 68.9,221.5 74.4,218.3 74.4,216.6 					"/>
				</g>
				<g id="XMLID_237_">
					<polygon id="XMLID_238_" class="st9" points="63.4,216.6 68.9,219.8 74.4,216.6 68.9,213.4 					"/>
				</g>
			</g>
		</g>
	</g>
	<g id="XMLID_219_">
		<g id="XMLID_226_">
			<g id="XMLID_227_" class="st0">
				<path id="XMLID_233_" class="st10" d="M130.1,189c-0.7-0.4-1.5-0.8-2.2-1.2c-0.3-0.1-0.5-0.2-0.8-0.3c-0.4-0.2-0.9-0.4-1.4-0.6
					c-0.1,0-0.2-0.1-0.3-0.1c-0.2-0.1-0.4-0.1-0.5-0.2c-0.6-0.2-1.2-0.4-1.8-0.6c-0.2-0.1-0.4-0.1-0.6-0.2c-0.1,0-0.3-0.1-0.4-0.1
					c-0.6-0.2-1.2-0.3-1.9-0.5c-0.1,0-0.3-0.1-0.4-0.1c-0.3-0.1-0.6-0.1-0.9-0.2c-0.2-0.1-0.5-0.1-0.8-0.1c-0.5-0.1-1.1-0.2-1.6-0.3
					c-0.2,0-0.4-0.1-0.6-0.1c-0.2,0-0.5,0-0.7-0.1c-0.5-0.1-1-0.1-1.5-0.2c-0.2,0-0.5-0.1-0.7-0.1c-0.2,0-0.5,0-0.7,0
					c-0.5,0-1-0.1-1.5-0.1c-0.3,0-0.5,0-0.8,0c-0.2,0-0.4,0-0.6,0c-0.6,0-1.1,0-1.7,0c-0.3,0-0.6,0-0.8,0c-0.3,0-0.6,0-0.8,0
					c-0.2,0-0.3,0-0.5,0c-0.7,0-1.4,0.1-2.1,0.2c-0.1,0-0.3,0-0.4,0c-0.2,0-0.4,0-0.6,0.1c-0.7,0.1-1.4,0.2-2.1,0.3
					c-0.2,0-0.4,0.1-0.5,0.1c-0.1,0-0.2,0-0.3,0c-0.3,0.1-0.6,0.1-1,0.2c-0.6,0.1-1.1,0.2-1.7,0.4c-0.4,0.1-0.8,0.2-1.2,0.3
					c-0.5,0.1-1,0.3-1.6,0.4c-0.1,0-0.2,0.1-0.3,0.1c-0.6,0.2-1.2,0.4-1.8,0.6c-0.1,0-0.2,0.1-0.2,0.1c-0.7,0.3-1.3,0.5-2,0.8
					c-0.2,0.1-0.4,0.2-0.6,0.3c-0.7,0.3-1.4,0.7-2,1.1c-0.1,0.1-0.2,0.1-0.4,0.2c-0.1,0.1-0.2,0.1-0.3,0.2c-0.2,0.1-0.4,0.2-0.5,0.3
					c-0.2,0.1-0.3,0.2-0.5,0.3c-0.2,0.1-0.3,0.2-0.5,0.4c-0.2,0.1-0.3,0.2-0.5,0.3c-0.2,0.1-0.3,0.2-0.5,0.4
					c-0.1,0.1-0.3,0.2-0.4,0.4c-0.1,0.1-0.3,0.3-0.4,0.4c-0.1,0.1-0.1,0.1-0.2,0.2c-0.1,0.1-0.1,0.1-0.2,0.2
					c-0.2,0.2-0.5,0.4-0.7,0.7c-0.1,0.1-0.2,0.2-0.2,0.2c-0.3,0.3-0.5,0.6-0.8,0.9c0,0,0,0,0,0c-0.1,0.1-0.1,0.1-0.2,0.2
					c-0.1,0.2-0.3,0.4-0.4,0.6c-0.1,0.1-0.1,0.2-0.2,0.3c-0.1,0.2-0.2,0.4-0.3,0.5c0,0-0.1,0.1-0.1,0.1c0,0.1-0.1,0.2-0.1,0.2
					c-0.1,0.2-0.2,0.3-0.2,0.5c-0.1,0.1-0.1,0.3-0.2,0.4c-0.1,0.2-0.1,0.3-0.2,0.5c0,0.1-0.1,0.1-0.1,0.2c0,0.1,0,0.1-0.1,0.2
					c-0.1,0.1-0.1,0.3-0.1,0.4c0,0.1-0.1,0.3-0.1,0.4c0,0.1-0.1,0.3-0.1,0.4c0,0.1,0,0.2-0.1,0.2c0,0.1,0,0.1,0,0.2
					c0,0.2-0.1,0.3-0.1,0.5c0,0.1,0,0.3,0,0.4c0,0.2,0,0.3,0,0.5c0,0.1,0,0.2,0,0.3c0,0.1,0,0.2,0,0.3l0,6.8c0-0.2,0-0.4,0-0.5
					c0-0.2,0-0.3,0-0.5c0-0.1,0-0.3,0-0.4c0-0.2,0-0.3,0.1-0.5c0-0.1,0.1-0.3,0.1-0.4c0-0.1,0.1-0.3,0.1-0.4c0-0.1,0.1-0.3,0.1-0.4
					c0-0.1,0.1-0.3,0.1-0.4c0-0.1,0.1-0.3,0.1-0.4c0.1-0.2,0.1-0.3,0.2-0.5c0.1-0.1,0.1-0.3,0.2-0.4c0.1-0.2,0.2-0.3,0.2-0.5
					c0.1-0.1,0.1-0.2,0.2-0.4c0.1-0.2,0.2-0.4,0.3-0.5c0.1-0.1,0.1-0.2,0.2-0.3c0.1-0.2,0.3-0.4,0.4-0.6c0.1-0.1,0.1-0.2,0.2-0.2
					c0.2-0.3,0.5-0.6,0.8-0.9c0.1-0.1,0.2-0.2,0.2-0.2c0.2-0.2,0.4-0.5,0.7-0.7c0.1-0.1,0.2-0.2,0.3-0.3c0.1-0.1,0.3-0.3,0.4-0.4
					c0.1-0.1,0.3-0.2,0.4-0.3c0.2-0.1,0.3-0.2,0.5-0.4c0.1-0.1,0.3-0.2,0.5-0.3c0.2-0.1,0.3-0.2,0.5-0.4c0.2-0.1,0.3-0.2,0.5-0.3
					c0.2-0.1,0.4-0.2,0.5-0.3c0.2-0.1,0.5-0.3,0.7-0.4c0.7-0.4,1.3-0.7,2-1.1c0.2-0.1,0.4-0.2,0.6-0.3c0.6-0.3,1.3-0.6,2-0.8
					c0.1,0,0.2-0.1,0.2-0.1c0.7-0.3,1.4-0.5,2.2-0.7c0.5-0.2,1-0.3,1.6-0.4c0.4-0.1,0.8-0.2,1.2-0.3c0.5-0.1,1.1-0.2,1.7-0.4
					c0.4-0.1,0.8-0.2,1.2-0.2c0.2,0,0.4-0.1,0.5-0.1c0.7-0.1,1.4-0.2,2.1-0.3c0.2,0,0.4-0.1,0.6-0.1c0.8-0.1,1.6-0.2,2.5-0.2
					c0.2,0,0.3,0,0.5,0c0.6,0,1.1,0,1.7,0c0.6,0,1.1,0,1.7,0c0.5,0,0.9,0,1.4,0c0.5,0,1,0,1.5,0.1c0.5,0,0.9,0.1,1.4,0.1
					c0.5,0,1,0.1,1.5,0.2c0.5,0.1,0.9,0.1,1.4,0.2c0.5,0.1,1.1,0.2,1.6,0.3c0.6,0.1,1.1,0.2,1.7,0.3c0.1,0,0.3,0.1,0.4,0.1
					c0.8,0.2,1.5,0.4,2.3,0.6c0.2,0.1,0.4,0.1,0.6,0.2c0.6,0.2,1.2,0.4,1.8,0.6c0.2,0.1,0.4,0.1,0.5,0.2c0.6,0.2,1.1,0.4,1.6,0.7
					c0.3,0.1,0.5,0.2,0.8,0.3c0.8,0.4,1.5,0.7,2.2,1.2c6,3.4,9,8,8.9,12.5l0-6.8C139.1,196.9,136.1,192.4,130.1,189z"/>
				<path id="XMLID_232_" class="st10" d="M146.5,202.2c0,0.2,0,0.4,0,0.6c0,0.2,0,0.3-0.1,0.5c0,0.2-0.1,0.4-0.1,0.6
					c0,0.2-0.1,0.3-0.1,0.5c0,0.2-0.1,0.4-0.1,0.6c0,0.2-0.1,0.3-0.1,0.5c-0.1,0.2-0.1,0.4-0.2,0.5c-0.1,0.2-0.1,0.3-0.2,0.5
					c-0.1,0.2-0.2,0.4-0.2,0.6c-0.1,0.2-0.1,0.3-0.2,0.5c-0.1,0.2-0.2,0.4-0.3,0.6c-0.1,0.2-0.2,0.3-0.3,0.5
					c-0.1,0.2-0.3,0.4-0.4,0.7c-0.1,0.1-0.2,0.3-0.3,0.4c-0.2,0.3-0.4,0.5-0.5,0.7c-0.1,0.1-0.1,0.2-0.2,0.3c-0.3,0.4-0.6,0.8-1,1.1
					c-0.1,0.1-0.2,0.2-0.3,0.3c-0.3,0.3-0.6,0.6-0.9,0.8c-0.1,0.1-0.3,0.3-0.4,0.4c-0.2,0.2-0.4,0.3-0.5,0.5
					c-0.2,0.1-0.3,0.3-0.5,0.4c-0.2,0.2-0.4,0.3-0.6,0.5c-0.2,0.1-0.4,0.3-0.6,0.4c-0.2,0.1-0.4,0.3-0.6,0.4
					c-0.2,0.1-0.4,0.3-0.6,0.4c-0.2,0.1-0.4,0.3-0.7,0.4c-0.3,0.2-0.6,0.4-0.9,0.5c-0.6,0.3-1.1,0.6-1.7,0.9
					c-0.2,0.1-0.3,0.2-0.5,0.3c-0.5,0.2-0.9,0.4-1.4,0.7c-0.2,0.1-0.3,0.1-0.5,0.2c-0.6,0.3-1.2,0.5-1.9,0.8c-0.1,0-0.2,0.1-0.3,0.1
					c-0.5,0.2-1.1,0.4-1.6,0.6c-0.2,0.1-0.5,0.1-0.7,0.2c-0.3,0.1-0.6,0.2-0.9,0.3c-0.3,0.1-0.5,0.2-0.8,0.2
					c-0.3,0.1-0.6,0.2-0.9,0.3c-0.3,0.1-0.5,0.1-0.8,0.2c-0.3,0.1-0.6,0.2-1,0.2c-0.3,0.1-0.5,0.1-0.8,0.2c-0.3,0.1-0.7,0.1-1,0.2
					c-0.3,0-0.5,0.1-0.8,0.1c-0.7,0.1-1.4,0.2-2.1,0.3c-0.1,0-0.2,0-0.3,0c-0.6,0.1-1.3,0.2-1.9,0.2c-0.2,0-0.5,0-0.7,0.1
					c-0.4,0-0.8,0.1-1.2,0.1c-0.3,0-0.5,0-0.8,0.1c-0.4,0-0.9,0-1.3,0.1c-0.2,0-0.5,0-0.7,0c-0.4,0-0.7,0-1.1,0c-0.3,0-0.5,0-0.8,0
					c-0.4,0-0.8,0-1.2,0c-0.2,0-0.5,0-0.7,0c-0.4,0-0.7,0-1.1,0c-0.2,0-0.5,0-0.7,0c-0.4,0-0.8-0.1-1.2-0.1c-0.2,0-0.4,0-0.6,0
					c-0.6,0-1.1-0.1-1.7-0.2c-0.1,0-0.1,0-0.2,0c-0.6-0.1-1.2-0.1-1.8-0.2c-0.1,0-0.3,0-0.4-0.1c-0.5-0.1-1-0.1-1.4-0.2
					c-0.2,0-0.4-0.1-0.7-0.1c-0.4-0.1-0.8-0.1-1.1-0.2c-0.2,0-0.4-0.1-0.6-0.1c-0.4-0.1-0.8-0.2-1.3-0.3c-0.2-0.1-0.5-0.1-0.7-0.2
					c-0.4-0.1-0.8-0.2-1.1-0.3c-0.2-0.1-0.4-0.1-0.6-0.2c-0.6-0.2-1.2-0.4-1.8-0.6c-0.1,0-0.2-0.1-0.3-0.1c-0.7-0.2-1.3-0.5-2-0.7
					c-0.1-0.1-0.3-0.1-0.4-0.2c-0.8-0.3-1.7-0.7-2.5-1.1c-0.1,0-0.2-0.1-0.2-0.1c-0.8-0.4-1.7-0.8-2.5-1.3c-3.3-1.9-5.8-4-7.6-6.3
					c-0.5-0.7-1-1.3-1.4-2s-0.8-1.4-1-2c-0.3-0.7-0.5-1.4-0.7-2.1c-0.1-0.3-0.2-0.7-0.2-1.1c-0.1-0.7-0.2-1.4-0.2-2.1v0c0,0,0,0,0,0
					l0,6.8c0,5.6,3.7,11.3,11.1,15.6c0.8,0.5,1.6,0.9,2.5,1.3c0.1,0,0.2,0.1,0.2,0.1c0.8,0.4,1.6,0.7,2.5,1.1c0.1,0,0.1,0.1,0.2,0.1
					c0.1,0,0.1,0,0.2,0.1c0.7,0.3,1.3,0.5,2,0.7c0.1,0,0.2,0.1,0.3,0.1c0.6,0.2,1.2,0.4,1.8,0.6c0.1,0,0.2,0.1,0.3,0.1
					c0.1,0,0.2,0.1,0.4,0.1c0.4,0.1,0.8,0.2,1.1,0.3c0.2,0.1,0.5,0.1,0.7,0.2c0.4,0.1,0.8,0.2,1.3,0.3c0.2,0,0.3,0.1,0.5,0.1
					c0,0,0.1,0,0.1,0c0.4,0.1,0.8,0.1,1.1,0.2c0.2,0,0.4,0.1,0.7,0.1c0.5,0.1,0.9,0.2,1.4,0.2c0.1,0,0.3,0,0.4,0.1c0,0,0,0,0,0
					c0.6,0.1,1.2,0.2,1.8,0.2c0,0,0,0,0,0c0.6,0.1,1.2,0.1,1.8,0.2c0,0,0,0,0,0c0.2,0,0.4,0,0.6,0c0.4,0,0.8,0.1,1.2,0.1
					c0.3,0,0.5,0,0.8,0c0.4,0,0.7,0,1.1,0c0,0,0.1,0,0.1,0c0.2,0,0.4,0,0.6,0c0.4,0,0.8,0,1.2,0c0.3,0,0.5,0,0.8,0
					c0.4,0,0.7,0,1.1,0c0.1,0,0.1,0,0.2,0c0.2,0,0.3,0,0.5,0c0.4,0,0.9,0,1.3-0.1c0.3,0,0.5,0,0.8-0.1c0.4,0,0.8-0.1,1.2-0.1
					c0.1,0,0.3,0,0.4,0c0.1,0,0.2,0,0.3,0c0.6-0.1,1.3-0.1,1.9-0.2c0.1,0,0.2,0,0.3,0c0.7-0.1,1.4-0.2,2.1-0.3c0.1,0,0.1,0,0.2,0
					c0.2,0,0.4-0.1,0.6-0.1c0.3-0.1,0.7-0.1,1-0.2c0.3-0.1,0.5-0.1,0.8-0.2c0.3-0.1,0.6-0.1,1-0.2c0.3-0.1,0.5-0.1,0.8-0.2
					c0.3-0.1,0.6-0.2,0.9-0.3c0.3-0.1,0.5-0.1,0.8-0.2c0.3-0.1,0.6-0.2,0.9-0.3c0.1,0,0.3-0.1,0.4-0.1c0.1,0,0.2-0.1,0.3-0.1
					c0.6-0.2,1.1-0.4,1.6-0.6c0.1,0,0.2-0.1,0.3-0.1c0.6-0.2,1.3-0.5,1.9-0.8c0.2-0.1,0.3-0.1,0.5-0.2c0.5-0.2,0.9-0.4,1.4-0.7
					c0.2-0.1,0.3-0.2,0.5-0.3c0.6-0.3,1.2-0.6,1.7-0.9c0.2-0.1,0.3-0.2,0.5-0.3c0.1-0.1,0.3-0.2,0.4-0.3c0.2-0.1,0.5-0.3,0.7-0.4
					c0.2-0.1,0.4-0.3,0.6-0.4c0.2-0.1,0.4-0.3,0.6-0.4c0.2-0.1,0.4-0.3,0.6-0.4c0.2-0.2,0.4-0.3,0.6-0.5c0.2-0.1,0.3-0.3,0.5-0.4
					c0.2-0.2,0.4-0.3,0.5-0.5c0.1-0.1,0.1-0.1,0.2-0.2c0.1-0.1,0.1-0.1,0.2-0.2c0.3-0.3,0.6-0.6,0.9-0.8c0.1-0.1,0.2-0.2,0.3-0.3
					c0.3-0.4,0.7-0.8,1-1.1c0,0,0,0,0,0c0.1-0.1,0.1-0.2,0.2-0.3c0.2-0.2,0.4-0.5,0.5-0.7c0.1-0.1,0.2-0.3,0.3-0.4
					c0.1-0.2,0.3-0.4,0.4-0.7c0-0.1,0.1-0.1,0.1-0.2c0.1-0.1,0.1-0.2,0.1-0.3c0.1-0.2,0.2-0.4,0.3-0.6c0.1-0.2,0.2-0.3,0.2-0.5
					c0.1-0.2,0.2-0.4,0.2-0.6c0-0.1,0.1-0.2,0.1-0.3c0-0.1,0.1-0.2,0.1-0.2c0.1-0.2,0.1-0.4,0.2-0.5c0.1-0.2,0.1-0.3,0.1-0.5
					c0-0.2,0.1-0.4,0.1-0.6c0-0.1,0.1-0.2,0.1-0.3c0-0.1,0-0.1,0-0.2c0-0.2,0.1-0.4,0.1-0.6c0-0.2,0-0.3,0.1-0.5c0-0.2,0-0.4,0-0.6
					c0-0.1,0-0.2,0-0.3c0-0.1,0-0.2,0-0.3l0-6.8C146.5,201.7,146.5,201.9,146.5,202.2z"/>
				<g id="XMLID_228_">
					<linearGradient id="XMLID_715_" gradientUnits="userSpaceOnUse" x1="71.0085" y1="201.3811" x2="146.5118" y2="201.3811">
						<stop  offset="1.075270e-002" style="stop-color:#DA978F"/>
						<stop  offset="1" style="stop-color:#BB5596"/>
					</linearGradient>
					<path id="XMLID_229_" class="st11" d="M135.4,185.9c14.8,8.5,14.8,22.4,0.2,30.9c-14.7,8.5-38.6,8.5-53.4,0
						c-14.8-8.5-14.9-22.4-0.2-30.9C96.6,177.4,120.6,177.4,135.4,185.9z M87.4,213.8c11.9,6.9,31.1,6.9,42.9,0
						c11.8-6.9,11.7-18-0.1-24.9s-31.1-6.9-42.9,0C75.4,195.8,75.5,207,87.4,213.8"/>
				</g>
			</g>
		</g>
		<g id="XMLID_221_">
			<g id="XMLID_222_" class="st0">
				<path id="XMLID_225_" class="st12" d="M85.5,223.3C85.5,223.3,85.5,223.2,85.5,223.3c0-0.1,0-0.2,0-0.2c0,0,0-0.1,0-0.1
					c0,0,0-0.1,0-0.1c0,0,0-0.1,0-0.1c0,0,0,0,0,0c0,0,0,0,0,0c0,0,0-0.1,0-0.1c0,0,0-0.1,0-0.1c0,0,0-0.1,0-0.1c0,0,0-0.1,0-0.1
					c0,0,0-0.1,0-0.1c0,0,0,0,0,0c0,0,0,0,0,0c0,0,0-0.1,0-0.1c0,0,0-0.1,0-0.1c0,0,0-0.1,0-0.1c0,0,0-0.1,0-0.1c0,0,0-0.1-0.1-0.1
					c0,0,0,0,0,0c0,0,0,0,0,0c0,0,0,0,0-0.1c0,0,0-0.1-0.1-0.1c0,0,0-0.1-0.1-0.1c0-0.1-0.1-0.1-0.1-0.2c0,0,0,0,0-0.1
					c0-0.1-0.1-0.1-0.1-0.2c-0.1-0.1-0.1-0.2-0.2-0.3c0-0.1-0.1-0.1-0.1-0.2c0,0,0,0,0,0c0,0,0,0,0,0c0,0-0.1-0.1-0.1-0.1
					c0,0-0.1-0.1-0.1-0.1c0,0-0.1-0.1-0.1-0.1c0,0-0.1-0.1-0.1-0.1c0,0,0,0,0,0c0,0,0,0,0,0c0,0,0,0-0.1-0.1c0,0-0.1-0.1-0.1-0.1
					c0,0-0.1-0.1-0.1-0.1c0,0-0.1-0.1-0.1-0.1c0,0-0.1-0.1-0.1-0.1c0,0,0,0,0,0c0,0,0,0,0,0c0,0-0.1-0.1-0.1-0.1
					c0,0-0.1-0.1-0.1-0.1c0,0-0.1-0.1-0.1-0.1c0,0-0.1,0-0.1-0.1c0,0,0,0-0.1,0c0,0,0,0-0.1,0c0,0-0.1,0-0.1-0.1c0,0-0.1,0-0.1-0.1
					c0,0-0.1,0-0.1,0c0,0-0.1,0-0.1,0c0,0,0,0,0,0c0,0,0,0,0,0c0,0,0,0-0.1,0c0,0-0.1,0-0.1,0c0,0-0.1,0-0.1,0c0,0-0.1,0-0.1,0
					c0,0-0.1,0-0.1,0c0,0,0,0,0,0c0,0,0,0,0,0c0,0-0.1,0-0.1,0c0,0-0.1,0-0.1,0c-0.1,0-0.1,0-0.2,0c0,0,0,0,0,0c0,0,0,0,0,0
					c-0.1,0-0.1,0-0.2,0c-0.1,0-0.1,0.1-0.2,0.1l-34.3,19.5c0.1-0.1,0.2-0.1,0.4-0.1c0,0,0,0,0,0c0.1,0,0.3,0,0.4,0c0,0,0,0,0,0
					c0.2,0,0.3,0,0.5,0.1c0,0,0,0,0,0c0.2,0.1,0.3,0.1,0.5,0.2c0.2,0.1,0.4,0.2,0.5,0.4c0,0,0,0,0,0c0.2,0.1,0.3,0.3,0.5,0.5
					c0,0,0,0,0,0c0.2,0.2,0.3,0.3,0.4,0.5c0,0,0,0,0,0c0.1,0.1,0.2,0.3,0.3,0.4c0,0.1,0.1,0.1,0.1,0.2c0.1,0.2,0.2,0.4,0.3,0.6
					c0,0,0,0,0,0c0.1,0.2,0.2,0.4,0.2,0.7c0,0,0,0,0,0c0.1,0.2,0.1,0.4,0.2,0.7c0,0,0,0,0,0c0,0.2,0.1,0.4,0.1,0.7
					c0,0.2,0,0.4-0.1,0.6c0,0,0,0,0,0c0,0.2-0.1,0.3-0.2,0.5c0,0,0,0,0,0c-0.1,0.1-0.1,0.2-0.2,0.3c0,0,0,0.1-0.1,0.1
					c-0.1,0.1-0.2,0.2-0.3,0.2L84.7,225c0.1-0.1,0.2-0.1,0.3-0.2c0,0,0.1-0.1,0.1-0.1c0,0,0.1-0.1,0.1-0.1c0-0.1,0.1-0.1,0.1-0.2
					c0,0,0,0,0,0c0,0,0,0,0,0c0,0,0-0.1,0.1-0.1c0,0,0-0.1,0-0.1c0,0,0-0.1,0-0.1c0,0,0-0.1,0-0.1c0,0,0,0,0,0c0,0,0,0,0,0
					c0,0,0-0.1,0-0.1c0,0,0-0.1,0-0.1c0,0,0-0.1,0-0.1C85.5,223.4,85.5,223.4,85.5,223.3C85.5,223.3,85.5,223.3,85.5,223.3z"/>
				<g id="XMLID_223_">
					<path id="XMLID_224_" class="st10" d="M48.5,238.1c1.5,0.8,2.7,2.9,2.7,4.6c0,1.7-1.2,2.4-2.6,1.6c-1.5-0.8-2.7-2.9-2.7-4.6
						C45.9,237.9,47.1,237.2,48.5,238.1z"/>
				</g>
			</g>
		</g>
		<path id="XMLID_220_" class="st13" d="M89.1,212.3c10.9,6,28.7,6,39.5,0c10.9-6,10.8-15.9-0.1-21.9c-10.9-6-28.7-6-39.5,0
			C78.1,196.5,78.1,206.3,89.1,212.3"/>
	</g>
	<g id="XMLID_211_">
		<g id="XMLID_214_">
			<g id="XMLID_215_" class="st0">
				<path id="XMLID_218_" class="st4" d="M223.1,196.1c0,0,0,0.1,0,0.1c0,0,0,0.1,0,0.1c0,0,0,0.1,0,0.1c0,0,0,0.1,0,0.1
					c0,0,0,0.1,0,0.1c0,0,0,0.1-0.1,0.1c0,0,0,0.1-0.1,0.1c0,0-0.1,0.1-0.1,0.1c0,0,0,0.1-0.1,0.1c-0.1,0.1-0.1,0.1-0.2,0.2
					c0,0,0,0-0.1,0.1c0,0-0.1,0.1-0.1,0.1c0,0-0.1,0.1-0.1,0.1c0,0-0.1,0.1-0.1,0.1c0,0-0.1,0.1-0.1,0.1L181.9,221
					c-0.2,0.1-0.4,0.2-0.5,0.3c-0.1,0-0.1,0-0.2,0.1c-0.1,0-0.2,0.1-0.4,0.1c-0.1,0-0.3,0.1-0.4,0.1c-0.2,0-0.3,0.1-0.5,0.1
					c0,0-0.1,0-0.1,0c-0.2,0-0.4,0-0.7,0c0,0-0.1,0-0.1,0c-0.2,0-0.4,0-0.7,0c0,0-0.1,0-0.1,0c-0.2,0-0.4-0.1-0.6-0.1
					c0,0-0.1,0-0.1,0c-0.2,0-0.4-0.1-0.5-0.2c0,0-0.1,0-0.1,0c-0.2-0.1-0.4-0.2-0.6-0.3l-18.4-10.6c-0.8-0.4-1.2-1-1.2-1.6l0,2.3
					c0,0.6,0.4,1.2,1.2,1.6l18.4,10.6c0.2,0.1,0.4,0.2,0.6,0.3c0,0,0,0,0,0c0,0,0.1,0,0.1,0c0.1,0,0.2,0.1,0.3,0.1
					c0.1,0,0.1,0,0.2,0c0,0,0.1,0,0.1,0c0,0,0.1,0,0.1,0c0.1,0,0.3,0,0.4,0.1c0,0,0.1,0,0.1,0c0,0,0.1,0,0.1,0c0,0,0.1,0,0.1,0
					c0.1,0,0.3,0,0.4,0c0,0,0.1,0,0.1,0c0,0,0.1,0,0.1,0c0.1,0,0.1,0,0.2,0c0.1,0,0.3,0,0.4,0c0,0,0,0,0,0c0,0,0.1,0,0.1,0
					c0.1,0,0.2,0,0.3,0c0,0,0.1,0,0.1,0c0.1,0,0.3-0.1,0.4-0.1c0.1,0,0.1,0,0.2-0.1c0.1,0,0.1,0,0.2-0.1c0.1,0,0.1,0,0.2-0.1
					c0.2-0.1,0.4-0.2,0.5-0.3L222,200c0,0,0,0,0,0c0,0,0.1,0,0.1-0.1c0,0,0.1-0.1,0.1-0.1c0,0,0.1-0.1,0.1-0.1c0,0,0.1-0.1,0.1-0.1
					c0,0,0,0,0,0c0,0,0,0,0,0c0.1-0.1,0.1-0.1,0.2-0.2c0,0,0,0,0,0c0,0,0,0,0,0c0,0,0.1-0.1,0.1-0.1c0,0,0,0,0-0.1c0,0,0,0,0,0
					c0,0,0-0.1,0.1-0.1c0,0,0,0,0-0.1c0,0,0,0,0,0c0,0,0-0.1,0-0.1c0,0,0-0.1,0-0.1c0,0,0,0,0,0c0,0,0-0.1,0-0.1c0,0,0-0.1,0-0.1
					c0,0,0,0,0,0l0,0L223.1,196.1z"/>
				<g id="XMLID_216_">
					<path id="XMLID_217_" class="st2" d="M222,194.5c1.5,0.9,1.5,2.3,0,3.2L181.9,221c-1.5,0.9-4,0.9-5.5,0l-18.4-10.6
						c-1.5-0.9-1.5-2.3,0-3.2l40.1-23.3c1.5-0.9,4-0.9,5.5,0L222,194.5z"/>
				</g>
			</g>
		</g>
		<g id="XMLID_212_">
			<linearGradient id="XMLID_716_" gradientUnits="userSpaceOnUse" x1="158.7082" y1="202.4452" x2="220.0346" y2="202.4452">
				<stop  offset="0" style="stop-color:#BB5596"/>
				<stop  offset="0.9892" style="stop-color:#6C89C0"/>
			</linearGradient>
			<path id="XMLID_213_" class="st14" d="M219.5,196c0.8,0.4,0.8,1.1,0,1.6l-38.4,22.3c-0.7,0.4-2,0.4-2.7,0l-19.1-11
				c-0.8-0.4-0.8-1.1,0-1.6l38.4-22.3c0.7-0.4,2-0.4,2.7,0l3.9,2.2l-0.1,0.9c-0.1,0.5,0.2,0.9,0.8,1.2l7,4c0.6,0.3,1.3,0.5,2.1,0.5
				l1.5-0.1L219.5,196z"/>
		</g>
	</g>
	<g id="XMLID_199_" class="st15">
		<g id="XMLID_209_">
			<polygon id="XMLID_210_" class="st16" points="176.2,91.1 176.2,93.5 147.7,109.9 147.7,107.5 			"/>
		</g>
		<g id="XMLID_200_" class="st0">
			<g id="XMLID_207_">
				<polygon id="XMLID_208_" class="st1" points="226.7,55.2 226.7,57.6 147.7,103.2 147.7,100.8 				"/>
			</g>
			<g id="XMLID_205_">
				<polygon id="XMLID_206_" class="st17" points="195.5,66.4 195.5,68.8 147.7,96.4 147.7,94 				"/>
			</g>
			<g id="XMLID_203_">
				<polygon id="XMLID_204_" class="st18" points="171.3,73.6 171.3,76 147.7,89.6 147.7,87.2 				"/>
			</g>
			<g id="XMLID_201_">
				<polygon id="XMLID_202_" class="st19" points="209.4,44.8 209.4,47.2 147.7,82.8 147.7,80.4 				"/>
			</g>
		</g>
	</g>
	<g id="XMLID_103_">
		<g id="XMLID_196_">
			<linearGradient id="XMLID_717_" gradientUnits="userSpaceOnUse" x1="17.2169" y1="156.3057" x2="120.6611" y2="52.8615">
				<stop  offset="0" style="stop-color:#394349"/>
				<stop  offset="0.1651" style="stop-color:#3A434B;stop-opacity:0.8349"/>
				<stop  offset="0.3246" style="stop-color:#3C4450;stop-opacity:0.6754"/>
				<stop  offset="0.4818" style="stop-color:#40455A;stop-opacity:0.5182"/>
				<stop  offset="0.6376" style="stop-color:#444667;stop-opacity:0.3624"/>
				<stop  offset="0.7924" style="stop-color:#4B4677;stop-opacity:0.2076"/>
				<stop  offset="0.9445" style="stop-color:#53448A;stop-opacity:5.549866e-002"/>
				<stop  offset="1" style="stop-color:#56438F;stop-opacity:0"/>
			</linearGradient>
			<polygon id="XMLID_198_" class="st20" points="112.8,45 25,95.7 25.2,164.2 112.8,113.7 			"/>
			<linearGradient id="XMLID_718_" gradientUnits="userSpaceOnUse" x1="24.9572" y1="77.3045" x2="112.7676" y2="77.3045">
				<stop  offset="1.075270e-002" style="stop-color:#DA978F"/>
				<stop  offset="1" style="stop-color:#BB5596"/>
			</linearGradient>
			<polygon id="XMLID_197_" class="st21" points="112.8,59 112.8,45 25,95.7 25,109.6 			"/>
		</g>
		<g id="XMLID_111_">
			<g id="XMLID_194_">
				<polygon id="XMLID_195_" class="st19" points="37,114.5 37,118 34,119.7 34,116.3 				"/>
			</g>
			<g id="XMLID_192_">
				<polygon id="XMLID_193_" class="st19" points="41.4,112 41.4,115.5 38.4,117.2 38.4,113.7 				"/>
			</g>
			<g id="XMLID_190_">
				<polygon id="XMLID_191_" class="st19" points="45.8,109.4 45.8,112.9 42.8,114.7 42.8,111.2 				"/>
			</g>
			<g id="XMLID_188_">
				<polygon id="XMLID_189_" class="st19" points="50.2,106.9 50.2,110.4 47.2,112.1 47.2,108.7 				"/>
			</g>
			<g id="XMLID_186_">
				<polygon id="XMLID_187_" class="st19" points="54.6,104.4 54.6,107.8 51.6,109.6 51.6,106.1 				"/>
			</g>
			<g id="XMLID_184_">
				<polygon id="XMLID_185_" class="st19" points="59,101.8 59,105.3 56,107 56,103.6 				"/>
			</g>
			<g id="XMLID_182_">
				<polygon id="XMLID_183_" class="st19" points="63.4,99.3 63.4,102.7 60.4,104.5 60.4,101 				"/>
			</g>
			<g id="XMLID_180_">
				<polygon id="XMLID_181_" class="st19" points="67.8,96.7 67.8,100.2 64.8,101.9 64.8,98.5 				"/>
			</g>
			<g id="XMLID_178_">
				<polygon id="XMLID_179_" class="st19" points="72.2,94.2 72.2,97.7 69.2,99.4 69.2,95.9 				"/>
			</g>
			<g id="XMLID_176_">
				<polygon id="XMLID_177_" class="st19" points="76.6,91.7 76.6,95.1 73.6,96.9 73.6,93.4 				"/>
			</g>
			<g id="XMLID_174_">
				<polygon id="XMLID_175_" class="st19" points="81,89.1 81,92.6 78,94.3 78,90.9 				"/>
			</g>
			<g id="XMLID_172_">
				<polygon id="XMLID_173_" class="st19" points="85.4,86.6 85.4,90 82.4,91.8 82.4,88.3 				"/>
			</g>
			<g id="XMLID_170_">
				<polygon id="XMLID_171_" class="st19" points="106.5,72.9 106.5,79.4 104.8,80.4 104.7,73.9 				"/>
			</g>
			<g id="XMLID_168_">
				<polygon id="XMLID_169_" class="st18" points="37,122.9 37,126.4 34,128.1 34,124.6 				"/>
			</g>
			<g id="XMLID_166_">
				<polygon id="XMLID_167_" class="st18" points="41.4,120.4 41.4,123.8 38.4,125.6 38.4,122.1 				"/>
			</g>
			<g id="XMLID_164_">
				<polygon id="XMLID_165_" class="st18" points="45.8,117.8 45.8,121.3 42.8,123 42.8,119.6 				"/>
			</g>
			<g id="XMLID_162_">
				<polygon id="XMLID_163_" class="st18" points="50.2,115.3 50.2,118.7 47.2,120.5 47.2,117 				"/>
			</g>
			<g id="XMLID_160_">
				<polygon id="XMLID_161_" class="st18" points="54.6,112.7 54.6,116.2 51.6,117.9 51.6,114.5 				"/>
			</g>
			<g id="XMLID_158_">
				<polygon id="XMLID_159_" class="st18" points="59,110.2 59,113.7 56,115.4 56,111.9 				"/>
			</g>
			<g id="XMLID_156_">
				<polygon id="XMLID_157_" class="st18" points="63.4,107.6 63.4,111.1 60.4,112.9 60.4,109.4 				"/>
			</g>
			<g id="XMLID_154_">
				<polygon id="XMLID_155_" class="st18" points="67.8,105.1 67.8,108.6 64.8,110.3 64.8,106.8 				"/>
			</g>
			<g id="XMLID_152_">
				<polygon id="XMLID_153_" class="st18" points="72.2,102.6 72.2,106 69.2,107.8 69.2,104.3 				"/>
			</g>
			<g id="XMLID_150_">
				<polygon id="XMLID_151_" class="st18" points="106.5,81.3 106.5,87.8 104.8,88.8 104.8,82.3 				"/>
			</g>
			<g id="XMLID_148_">
				<polygon id="XMLID_149_" class="st17" points="37,131.3 37,134.7 34,136.5 34,133 				"/>
			</g>
			<g id="XMLID_146_">
				<polygon id="XMLID_147_" class="st17" points="41.4,128.7 41.4,132.2 38.4,133.9 38.4,130.5 				"/>
			</g>
			<g id="XMLID_144_">
				<polygon id="XMLID_145_" class="st17" points="45.8,126.2 45.8,129.7 42.8,131.4 42.8,127.9 				"/>
			</g>
			<g id="XMLID_142_">
				<polygon id="XMLID_143_" class="st17" points="50.2,123.6 50.3,127.1 47.2,128.9 47.2,125.4 				"/>
			</g>
			<g id="XMLID_140_">
				<polygon id="XMLID_141_" class="st17" points="54.6,121.1 54.7,124.6 51.6,126.3 51.6,122.8 				"/>
			</g>
			<g id="XMLID_138_">
				<polygon id="XMLID_139_" class="st17" points="59,118.5 59.1,122 56,123.8 56,120.3 				"/>
			</g>
			<g id="XMLID_136_">
				<polygon id="XMLID_137_" class="st17" points="63.4,116 63.5,119.5 60.4,121.2 60.4,117.7 				"/>
			</g>
			<g id="XMLID_134_">
				<polygon id="XMLID_135_" class="st17" points="67.9,113.5 67.9,116.9 64.8,118.7 64.8,115.2 				"/>
			</g>
			<g id="XMLID_132_">
				<polygon id="XMLID_133_" class="st17" points="72.3,110.9 72.3,114.4 69.2,116.1 69.2,112.7 				"/>
			</g>
			<g id="XMLID_130_">
				<polygon id="XMLID_131_" class="st17" points="76.7,108.4 76.7,111.9 73.7,113.6 73.6,110.1 				"/>
			</g>
			<g id="XMLID_128_">
				<polygon id="XMLID_129_" class="st17" points="81.1,105.8 81.1,109.3 78.1,111.1 78,107.6 				"/>
			</g>
			<g id="XMLID_126_">
				<polygon id="XMLID_127_" class="st17" points="106.5,89.6 106.5,96.1 104.8,97.1 104.8,90.6 				"/>
			</g>
			<g id="XMLID_124_">
				<polygon id="XMLID_125_" class="st1" points="106.5,98 106.6,104.5 104.8,105.5 104.8,99 				"/>
			</g>
			<g id="XMLID_122_">
				<polygon id="XMLID_123_" class="st1" points="37,139.6 37.1,143.1 34,144.8 34,141.4 				"/>
			</g>
			<g id="XMLID_120_">
				<polygon id="XMLID_121_" class="st1" points="41.5,137.1 41.5,140.6 38.4,142.3 38.4,138.8 				"/>
			</g>
			<g id="XMLID_118_">
				<polygon id="XMLID_119_" class="st1" points="45.9,134.5 45.9,138 42.8,139.8 42.8,136.3 				"/>
			</g>
			<g id="XMLID_116_">
				<polygon id="XMLID_117_" class="st1" points="50.3,132 50.3,135.5 47.2,137.2 47.2,133.7 				"/>
			</g>
			<g id="XMLID_114_">
				<polygon id="XMLID_115_" class="st1" points="54.7,129.5 54.7,132.9 51.7,134.7 51.6,131.2 				"/>
			</g>
			<g id="XMLID_112_">
				<polygon id="XMLID_113_" class="st1" points="59.1,126.9 59.1,130.4 56.1,132.1 56,128.7 				"/>
			</g>
		</g>
		<g id="XMLID_104_">
			<g id="XMLID_109_">
				<path id="XMLID_110_" class="st2" d="M33.9,96c0.8-0.5,1.5-0.1,1.5,0.8c0,0.9-0.7,2.1-1.5,2.5c-0.8,0.5-1.5,0.1-1.5-0.8
					C32.4,97.6,33.1,96.5,33.9,96z"/>
			</g>
			<g id="XMLID_107_">
				<path id="XMLID_108_" class="st2" d="M41.4,91.7c0.8-0.5,1.5-0.1,1.5,0.8c0,0.9-0.7,2.1-1.5,2.5c-0.8,0.5-1.5,0.1-1.5-0.8
					C39.9,93.3,40.6,92.2,41.4,91.7z"/>
			</g>
			<g id="XMLID_105_">
				<path id="XMLID_106_" class="st2" d="M48.9,87.4c0.8-0.5,1.5-0.1,1.5,0.8c0,0.9-0.7,2.1-1.5,2.5c-0.8,0.5-1.5,0.1-1.5-0.8
					C47.4,89,48.1,87.9,48.9,87.4z"/>
			</g>
		</g>
	</g>
	<g id="XMLID_100_">
		<polygon id="XMLID_102_" class="st22" points="138.6,85.1 99.9,107.4 100,137.6 138.6,115.3 		"/>
		<polygon id="XMLID_101_" class="st23" points="138.6,91.3 138.6,85.1 99.9,107.4 100,113.6 		"/>
	</g>
	<g id="XMLID_78_">
		<g id="XMLID_93_" class="st0">
			<g id="XMLID_98_">
				<polygon id="XMLID_99_" class="st24" points="187.9,126.6 187.9,133.7 181.1,137.6 181.1,130.6 				"/>
			</g>
			<g id="XMLID_96_">
				<polygon id="XMLID_97_" class="st25" points="181.1,130.6 181.1,137.6 165.9,128.9 166,121.9 				"/>
			</g>
			<g id="XMLID_94_">
				<polygon id="XMLID_95_" class="st1" points="187.9,126.6 181.1,130.6 166,121.9 172.8,117.9 				"/>
			</g>
		</g>
		<g id="XMLID_86_" class="st0">
			<g id="XMLID_91_">
				<polygon id="XMLID_92_" class="st26" points="205.5,148.4 205.5,155.5 198.7,159.4 198.7,152.4 				"/>
			</g>
			<g id="XMLID_89_">
				<polygon id="XMLID_90_" class="st27" points="198.7,152.4 198.7,159.4 155.9,134.8 155.9,127.7 				"/>
			</g>
			<g id="XMLID_87_">
				<polygon id="XMLID_88_" class="st17" points="205.5,148.4 198.7,152.4 155.9,127.7 162.8,123.7 				"/>
			</g>
		</g>
		<g id="XMLID_79_" class="st0">
			<g id="XMLID_84_">
				<polygon id="XMLID_85_" class="st28" points="177.9,144.1 177.9,151.1 171,155.1 171.1,148 				"/>
			</g>
			<g id="XMLID_82_">
				<polygon id="XMLID_83_" class="st29" points="171.1,148 171,155.1 145.9,140.6 145.9,133.5 				"/>
			</g>
			<g id="XMLID_80_">
				<polygon id="XMLID_81_" class="st30" points="177.9,144.1 171.1,148 145.9,133.5 152.7,129.5 				"/>
			</g>
		</g>
	</g>
	<g id="XMLID_36_">
		<g id="XMLID_76_">
			<path id="XMLID_77_" class="st31" d="M43.8,61.9c0.2-0.1,0.3,0,0.3,0.2c0,0.2-0.2,0.5-0.3,0.6l-2.6,1.5c-0.2,0.1-0.3,0-0.3-0.2
				c0-0.2,0.2-0.5,0.3-0.6L43.8,61.9z"/>
		</g>
		<g id="XMLID_74_">
			<path id="XMLID_75_" class="st31" d="M47.9,61.3c0.2-0.1,0.3,0,0.3,0.2c0,0.2-0.2,0.5-0.3,0.6l-6.7,3.9c-0.2,0.1-0.3,0-0.3-0.2
				c0-0.2,0.2-0.5,0.3-0.6L47.9,61.3z"/>
		</g>
		<g id="XMLID_70_">
			<path id="XMLID_71_" class="st31" d="M48.6,56.9c0.8-0.4,1.4-0.1,1.4,0.8l0,5.5c0,0.9-0.6,2-1.4,2.4l-4.5,2.6l-2.7,4.4
				c-0.1,0.1-0.1,0.2-0.2,0.2l-0.1,0c-0.1,0-0.2-0.1-0.2-0.2l0-2.6l-0.4,0.2c-0.8,0.4-1.4,0.1-1.4-0.8l0-5.5c0-0.9,0.6-2,1.4-2.4
				L48.6,56.9z M49.4,63.6l0-5.5c0-0.5-0.3-0.6-0.7-0.4l-8.2,4.7c-0.4,0.2-0.7,0.8-0.7,1.2l0,5.5c0,0.5,0.3,0.6,0.7,0.4l0.7-0.4
				c0.2-0.1,0.3,0,0.3,0.2l0,2.1l2.3-3.7c0.1-0.1,0.1-0.2,0.2-0.2l4.6-2.7C49.1,64.6,49.4,64.1,49.4,63.6"/>
		</g>
		<g id="XMLID_66_">
			<path id="XMLID_67_" class="st1" d="M44.5,50.4c7.1-4.1,12.8-0.8,12.8,7.3c0,10.7-12.1,30.5-12.7,31.5C44,88.9,31.8,83,31.8,72.5
				C31.8,64.4,37.5,54.5,44.5,50.4z M44.6,77.2c5.8-3.3,10.5-11.5,10.5-18.1c0-6.7-4.7-9.4-10.5-6c-5.8,3.3-10.5,11.5-10.5,18.1
				C34.1,77.8,38.8,80.5,44.6,77.2"/>
		</g>
		<g id="XMLID_62_">
			<path id="XMLID_63_" class="st31" d="M12.7,43c1.8-1,3.2-0.2,3.2,1.8l0,0.5l0,0.4c0,0.2-0.2,0.5-0.3,0.6l-5.7,3.3
				c-0.2,0.1-0.3,0-0.3-0.2l0-0.4l0-0.5C9.6,46.4,11,44,12.7,43z M15.3,45.7l0-0.5c0-1.6-1.1-2.2-2.5-1.4c-1.4,0.8-2.5,2.7-2.5,4.3
				l0,0.5L15.3,45.7"/>
		</g>
		<g id="XMLID_60_">
			<path id="XMLID_61_" class="st31" d="M12.8,49.2c0.2-0.1,0.3,0,0.3,0.2l0,2.2c0,0.2-0.2,0.5-0.3,0.6c-0.2,0.1-0.3,0-0.3-0.2
				l0-2.2C12.4,49.5,12.6,49.3,12.8,49.2z"/>
		</g>
		<g id="XMLID_58_">
			<path id="XMLID_59_" class="st31" d="M16.7,44.8c0.2-0.1,0.3,0,0.3,0.2l0,3.3c0,2.7-1.9,6.1-4.3,7.5c-2.4,1.4-4.3,0.3-4.3-2.5
				l0-3.3c0-0.2,0.2-0.5,0.3-0.6l0.8-0.5l0,0.4c0,0.2,0.2,0.3,0.3,0.2L9.1,50l0,2.9c0,2.3,1.6,3.2,3.7,2.1s3.6-4,3.6-6.3l0-2.9
				l-0.8,0.5c0.2-0.1,0.3-0.4,0.3-0.6l0-0.4L16.7,44.8z"/>
		</g>
		<g id="XMLID_54_">
			<path id="XMLID_55_" class="st19" d="M12.7,34.7c7.1-4.1,12.8-0.8,12.8,7.3c0,10.7-12.1,30.5-12.7,31.5C12.2,73.2,0,67.2,0,56.7
				C0,48.6,5.7,38.8,12.7,34.7z M12.8,61.4c5.8-3.3,10.5-11.5,10.5-18.1c0-6.7-4.7-9.4-10.5-6S2.2,48.8,2.3,55.4
				C2.3,62.1,7,64.8,12.8,61.4"/>
		</g>
		<g id="XMLID_37_" class="st0">
			<g id="XMLID_52_">
				<path id="XMLID_53_" class="st31" d="M77.5,15.4c0.1-0.1,0.2-0.1,0.2,0c0.1,0,0.1,0.1,0.1,0.2c0,0.1,0,0.2-0.1,0.3
					c-0.1,0.1-0.1,0.2-0.2,0.2c-0.1,0.1-0.2,0.1-0.2,0c-0.1,0-0.1-0.1-0.1-0.2c0-0.1,0-0.2,0.1-0.3C77.4,15.5,77.5,15.4,77.5,15.4z"
					/>
			</g>
			<g id="XMLID_50_">
				<path id="XMLID_51_" class="st31" d="M75,16.8c0.2-0.1,0.3,0,0.3,0.2c0,0.2-0.1,0.5-0.3,0.6c-0.2,0.1-0.3,0-0.3-0.2
					C74.6,17.2,74.8,17,75,16.8z"/>
			</g>
			<g id="XMLID_46_">
				<path id="XMLID_47_" class="st17" d="M76.3,1.7C83.4-2.3,89.1,0.9,89.2,9c0,10.7-12.1,30.5-12.7,31.5
					c-0.6-0.3-12.8-6.3-12.8-16.8C63.6,15.7,69.3,5.8,76.3,1.7z M76.4,28.5c5.8-3.3,10.5-11.5,10.5-18.1c0-6.7-4.7-9.4-10.5-6
					c-5.8,3.3-10.5,11.5-10.5,18.1C65.9,29.2,70.6,31.8,76.4,28.5"/>
			</g>
			<g id="XMLID_44_">
				<path id="XMLID_45_" class="st31" d="M72.4,18.3c0.1,0,0.2-0.1,0.2,0c0.1,0,0.1,0.1,0.1,0.2c0,0.1,0,0.2-0.1,0.3
					c-0.1,0.1-0.2,0.2-0.2,0.3c-0.1,0.1-0.2,0.1-0.2,0c-0.1,0-0.1-0.1-0.1-0.2s0-0.2,0.1-0.3C72.2,18.5,72.3,18.4,72.4,18.3z"/>
			</g>
			<g id="XMLID_42_">
				<path id="XMLID_43_" class="st31" d="M70.8,15.5l0,2.1c0,0.2,0.2,0.3,0.3,0.2l0.3-0.2l0,5.4l9.8-5.7l0-5.4l0.3-0.2
					c0.2-0.1,0.3-0.4,0.3-0.6l0,6.2c0,0.2-0.2,0.5-0.3,0.6L71.1,24c-0.2,0.1-0.3,0-0.3-0.2L70.8,15.5z"/>
			</g>
			<g id="XMLID_38_">
				<path id="XMLID_39_" class="st31" d="M81.6,8.9C81.8,8.7,82,8.8,82,9l0,2.1c0,0.2-0.2,0.5-0.3,0.6l-0.3,0.2l-9.8,5.7l-0.3,0.2
					c-0.2,0.1-0.3,0-0.3-0.2l0-2.1c0-0.2,0.2-0.5,0.3-0.6L81.6,8.9z M81.3,11.2l0-1.3l-9.8,5.7l0,1.3L81.3,11.2"/>
			</g>
		</g>
	</g>
	<g id="XMLID_3_">
		<g id="XMLID_20_">
			<g id="XMLID_34_">
				<polygon id="XMLID_35_" class="st16" points="150.8,62.5 150.8,64.8 134.6,74.2 134.6,71.9 				"/>
			</g>
			<g id="XMLID_32_">
				<polygon id="XMLID_33_" class="st1" points="150.8,56 150.8,58.3 134.6,67.7 134.6,65.4 				"/>
			</g>
			<g id="XMLID_30_">
				<polygon id="XMLID_31_" class="st17" points="150.8,49.6 150.8,51.8 134.6,61.2 134.6,58.9 				"/>
			</g>
			<g id="XMLID_28_">
				<polygon id="XMLID_29_" class="st18" points="150.8,43.1 150.8,45.3 134.6,54.7 134.6,52.4 				"/>
			</g>
			<g id="XMLID_21_">
				<path id="XMLID_22_" class="st2" d="M142.5,12.2l14,6.3l-3.1,1.8l0.2,49.1l-21.6,12.5l-0.2-49.1l-3.1,1.8L142.5,12.2z
					 M150.8,64.8l0-2.3l-16.2,9.4l0,2.3L150.8,64.8 M150.8,51.8l0-2.3l-16.2,9.4l0,2.3L150.8,51.8 M150.8,45.3l0-2.3l-16.2,9.4
					l0,2.3L150.8,45.3 M150.8,58.3l0-2.3l-16.2,9.4l0,2.3L150.8,58.3"/>
			</g>
		</g>
		<g id="XMLID_4_">
			<g id="XMLID_18_">
				<path id="XMLID_19_" class="st31" d="M137.5,38.1c0.5-0.3,0.9-0.3,1.2-0.1c0.3,0.2,0.5,0.6,0.5,1.2c0,0.4-0.1,0.9-0.3,1.4
					c-0.2,0.5-0.5,1.1-0.8,1.8l-1.2,2.7l2.5-1.4l0,0.8l-3.6,2.1l0-0.7l1.7-3.7c0.3-0.6,0.5-1.1,0.6-1.5c0.1-0.4,0.2-0.7,0.2-1
					c0-0.4-0.1-0.7-0.2-0.8c-0.1-0.2-0.3-0.2-0.6,0c-0.3,0.2-0.5,0.5-0.7,0.8c-0.2,0.4-0.2,0.8-0.2,1.2l-0.9,0.5l0,0
					c0-0.6,0.1-1.3,0.5-1.9C136.5,38.9,137,38.4,137.5,38.1z"/>
			</g>
			<g id="XMLID_16_">
				<path id="XMLID_17_" class="st31" d="M143.5,34.7l0,0.8l-2.1,1.2l-0.2,2.3c0.1-0.2,0.2-0.4,0.4-0.5c0.1-0.2,0.3-0.3,0.5-0.4
					c0.5-0.3,0.9-0.3,1.2,0c0.3,0.3,0.4,0.8,0.4,1.5c0,0.7-0.2,1.4-0.4,2c-0.3,0.6-0.7,1.1-1.3,1.4c-0.5,0.3-0.9,0.3-1.2,0.2
					c-0.3-0.1-0.5-0.6-0.5-1.2l0,0l0.8-0.5c0,0.4,0.1,0.7,0.2,0.8c0.2,0.1,0.4,0.1,0.6,0c0.3-0.2,0.5-0.4,0.7-0.8
					c0.1-0.4,0.2-0.8,0.2-1.3c0-0.5-0.1-0.8-0.2-1c-0.1-0.2-0.4-0.2-0.7-0.1c-0.2,0.1-0.4,0.3-0.6,0.5c-0.1,0.2-0.2,0.4-0.3,0.7
					l-0.8,0.3l0.3-4.2L143.5,34.7z"/>
			</g>
			<g id="XMLID_12_">
				<path id="XMLID_13_" class="st31" d="M146.6,35.8c-0.2,0.4-0.5,0.7-0.9,0.9c-0.4,0.2-0.7,0.2-0.9,0.1c-0.2-0.2-0.3-0.5-0.3-0.9
					l0-0.4c0-0.4,0.1-0.9,0.3-1.3c0.2-0.4,0.5-0.7,0.9-0.9c0.4-0.2,0.7-0.2,0.9-0.1c0.2,0.2,0.3,0.5,0.3,0.9l0,0.4
					C146.9,35,146.8,35.4,146.6,35.8z M145.3,36.1c0.1,0.1,0.2,0.1,0.4,0c0.2-0.1,0.3-0.3,0.4-0.5c0.1-0.2,0.1-0.5,0.1-0.7l0-0.4
					c0-0.2,0-0.4-0.1-0.6c-0.1-0.1-0.2-0.1-0.4,0c-0.2,0.1-0.3,0.3-0.4,0.5c-0.1,0.2-0.1,0.5-0.1,0.7l0,0.4
					C145.2,35.8,145.2,36,145.3,36.1"/>
			</g>
			<g id="XMLID_5_" class="st0">
				<g id="XMLID_8_">
					<path id="XMLID_9_" class="st31" d="M149.4,35.8c0.2,0.2,0.3,0.5,0.3,0.9l0,0.4c0,0.4-0.1,0.8-0.3,1.3
						c-0.2,0.4-0.5,0.7-0.9,0.9c-0.4,0.2-0.7,0.2-0.9,0.1c-0.2-0.2-0.3-0.5-0.3-0.9l0-0.4c0-0.4,0.1-0.9,0.3-1.3
						c0.2-0.4,0.5-0.7,0.9-0.9C148.9,35.7,149.2,35.7,149.4,35.8z M149.1,37.5l0-0.4c0-0.3-0.1-0.4-0.2-0.6c-0.1-0.1-0.2-0.1-0.4,0
						c-0.2,0.1-0.3,0.3-0.4,0.5c-0.1,0.2-0.2,0.5-0.2,0.7l0,0.4c0,0.2,0.1,0.4,0.2,0.6c0.1,0.1,0.2,0.1,0.4,0
						c0.2-0.1,0.3-0.3,0.4-0.5C149,38,149.1,37.7,149.1,37.5"/>
				</g>
				<g id="XMLID_6_">
					<polygon id="XMLID_7_" class="st31" points="148.1,32.8 148.6,32.8 146,40.1 145.5,40 					"/>
				</g>
			</g>
		</g>
	</g>
</g>
</svg>
